<svg id="Component_5_1" data-name="Component 5 – 1" xmlns="http://www.w3.org/2000/svg" xmlns:xlink="http://www.w3.org/1999/xlink" width="539.935" height="533.362" viewBox="0 0 539.935 533.362">
  <defs>
    <linearGradient id="linear-gradient" x1="1.63" y1="-0.826" x2="0.696" y2="0.315" gradientUnits="objectBoundingBox">
      <stop offset="0" stop-color="#9feab2"/>
      <stop offset="1" stop-color="#6ad4ab"/>
    </linearGradient>
    <linearGradient id="linear-gradient-2" x1="0.44" y1="0.662" x2="1.479" y2="-0.006" gradientUnits="objectBoundingBox">
      <stop offset="0" stop-color="#67d690"/>
      <stop offset="1" stop-color="#00a99d"/>
    </linearGradient>
    <linearGradient id="linear-gradient-3" x1="0.652" y1="1.355" x2="0.308" y2="-0.317" xlink:href="#linear-gradient-2"/>
    <linearGradient id="linear-gradient-4" x1="1.569" y1="-3.264" x2="0.443" y2="0.681" xlink:href="#linear-gradient-2"/>
    <linearGradient id="linear-gradient-5" x1="1.766" y1="-0.739" x2="-1.475" y2="2.363" xlink:href="#linear-gradient"/>
    <linearGradient id="linear-gradient-6" x1="-3.291" y1="6.066" x2="2.371" y2="-2.148" xlink:href="#linear-gradient"/>
    <linearGradient id="linear-gradient-7" x1="-1.921" y1="6.567" x2="2.646" y2="-4.883" xlink:href="#linear-gradient"/>
    <linearGradient id="linear-gradient-8" x1="2.952" y1="-6.137" x2="-0.281" y2="2.587" xlink:href="#linear-gradient-2"/>
    <linearGradient id="linear-gradient-9" x1="-117.261" y1="0.959" x2="-116.1" y2="-0.256" xlink:href="#linear-gradient-2"/>
    <linearGradient id="linear-gradient-10" x1="-129.104" y1="-17.527" x2="-127.821" y2="-18.589" xlink:href="#linear-gradient-2"/>
    <linearGradient id="linear-gradient-11" x1="-139.485" y1="-39.281" x2="-138.088" y2="-40.278" xlink:href="#linear-gradient-2"/>
    <linearGradient id="linear-gradient-12" x1="-115.277" y1="-65.352" x2="-113.98" y2="-66.453" xlink:href="#linear-gradient-2"/>
    <linearGradient id="linear-gradient-13" x1="1.161" y1="1.496" x2="0.332" y2="0.412" xlink:href="#linear-gradient-2"/>
    <linearGradient id="linear-gradient-14" x1="-216.312" y1="-1.209" x2="-216.312" y2="-3.204" gradientUnits="objectBoundingBox">
      <stop offset="0" stop-color="#fe4500"/>
      <stop offset="1" stop-color="#efdb29"/>
    </linearGradient>
    <linearGradient id="linear-gradient-15" x1="0.073" y1="1.6" x2="0.879" y2="-0.476" gradientUnits="objectBoundingBox">
      <stop offset="0" stop-color="#36078b"/>
      <stop offset="1" stop-color="#16b1ff"/>
    </linearGradient>
    <linearGradient id="linear-gradient-16" y1="0.495" x2="1" y2="0.495" gradientUnits="objectBoundingBox">
      <stop offset="0" stop-color="#fea600"/>
      <stop offset="1" stop-color="#efdb29"/>
    </linearGradient>
    <linearGradient id="linear-gradient-17" x1="0.5" y1="1.777" x2="0.5" y2="-0.088" gradientUnits="objectBoundingBox">
      <stop offset="0" stop-color="#00fef6"/>
      <stop offset="1" stop-color="#29a0ef" stop-opacity="0"/>
    </linearGradient>
    <linearGradient id="linear-gradient-18" x1="0.5" y1="0.946" x2="0.5" y2="-3.795" xlink:href="#linear-gradient-15"/>
    <linearGradient id="linear-gradient-19" x1="0.278" y1="11.89" x2="0.565" y2="7.965" xlink:href="#linear-gradient-15"/>
  </defs>
  <ellipse id="Ellipse_17" data-name="Ellipse 17" cx="215.652" cy="4.987" rx="215.652" ry="4.987" transform="translate(108.631 523.388)" fill="#ccd9f8"/>
  <path id="Path_199" data-name="Path 199" d="M138.4,379.84c0,1.44,14.521,2.6,32.428,2.6s32.415-1.16,32.415-2.6-14.507-2.6-32.415-2.6S138.4,378.4,138.4,379.84Z" transform="translate(-66.971 125.774)" fill="#ccd9f8"/>
  <path id="Path_202" data-name="Path 202" d="M441.685,230c-8.521,12.454-11.281,20.934-.493,22s24.668-26.668,16.668-32C452.219,216.248,445.752,224.061,441.685,230Z" transform="translate(31.633 73.021)" fill="url(#linear-gradient)"/>
  <g id="Group_127" data-name="Group 127" transform="translate(-740.065)">
    <path id="Path_200" data-name="Path 200" d="M465.756,194.5c6.534-2.04,9.147,2.667,8.52,6.334-.893,5.16-3.693,5.747,3.187,10.2,5.08,3.28,6.28,10.094.547,13.507-8,4.774.533,8.467,2.387,12.561,3.854,8.44-2.454,10.507-12.641,14.667-10.467,4.36-18.254,2.227-25.6-4.44-5.4-4.92-8.614-10.467-5.334-15.481,4.654-7.214,12.281-2.32,9.334-9.334-1.773-4.2-1.947-12,7.6-12.707S456.342,197.45,465.756,194.5Z" transform="translate(772.149 64.684)" fill="url(#linear-gradient-2)"/>
    <path id="Path_201" data-name="Path 201" d="M433.263,184.354c-8.227-1.72-10.854,4.387-9.654,8.76,1.693,6.187,5.187,6.574-2.667,12.827-5.814,4.627-6.467,13.094.933,16.574,10.347,4.88.36,10.414-1.427,15.628-3.694,10.774,4.254,12.547,17.2,16.468,13.334,4,22.668.52,30.748-8.48,6-6.667,9.334-13.8,4.72-19.548-6.547-8.254-15.267-1.333-12.494-10.294,1.667-5.334.933-14.921-10.8-14.667S445.184,186.835,433.263,184.354Z" transform="translate(765.799 61.366)" fill="url(#linear-gradient-3)"/>
    <path id="Path_203" data-name="Path 203" d="M438.9,275.959h24.441a6.227,6.227,0,0,0,6.134-5.214l5.334-32.9a1.227,1.227,0,0,0-1.213-1.44H428.551a1.24,1.24,0,0,0-1.227,1.44l5.334,32.9a6.2,6.2,0,0,0,6.24,5.214Z" transform="translate(769.418 78.82)" fill="#0050c8"/>
  </g>
  <path id="Path_204" data-name="Path 204" d="M432.274,210.96c7.614,2.307,13.947,5.48,9.027,7.72s-22.041-4.88-19.654-8C423.34,208.6,428.647,209.853,432.274,210.96Z" transform="translate(27.39 69.869)" fill="url(#linear-gradient-4)"/>
  <path id="Path_205" data-name="Path 205" d="M429.415,194.01c1.747,4.787,3.547,7.227,5.96,4.467s-2.48-12-5.52-10.894C427.709,188.4,428.589,191.716,429.415,194.01Z" transform="translate(29.755 62.511)" fill="url(#linear-gradient-5)"/>
  <path id="Path_206" data-name="Path 206" d="M459.6,200.624c-1.867,4.747-2.133,7.76,1.507,7.294s6.12-10.667,3.08-11.814C462.045,195.29,460.5,198.357,459.6,200.624Z" transform="translate(39.674 65.337)" fill="url(#linear-gradient-6)"/>
  <path id="Path_207" data-name="Path 207" d="M467.333,218.008c3.307-2.947,4.694-5.174,1.693-6.24s-8.92,5.854-7.014,7.934C463.346,221.182,465.746,219.408,467.333,218.008Z" transform="translate(40.8 70.568)" fill="url(#linear-gradient-7)"/>
  <path id="Path_208" data-name="Path 208" d="M439.33,209.719c-3-1.013-4.867-1.08-4.467,1.147s6.787,3.467,7.414,1.547C442.717,211.053,440.757,210.2,439.33,209.719Z" transform="translate(31.854 69.696)" fill="url(#linear-gradient-8)"/>
  <path id="Path_209" data-name="Path 209" d="M107,316.944H429.764V123.6H107Zm317.711-5.054H112.067v-183.2H424.711Z" transform="translate(-77.44 41.209)" fill="#99c1f9"/>
  <rect id="Rectangle_35" data-name="Rectangle 35" width="317.711" height="188.25" transform="translate(354.511 355.633) rotate(180)" fill="#d8e7fc"/>
  <g id="Group_102" data-name="Group 102" transform="translate(50.108 200.206)" opacity="0.7">
    <path id="Path_210" data-name="Path 210" d="M273.775,160.619a3.107,3.107,0,0,1-.827-2.48c.307-1.333,2.107-2.2,4.814-2.44a3.267,3.267,0,0,1-.467-2.307c.8-3.667,9.921-4.32,20.361-1.48a50.893,50.893,0,0,1,9.907,3.8,2.373,2.373,0,0,1,0-1.333c.947-2.667,8-2.213,15.8,1.16a42.934,42.934,0,0,1,5.254,2.667c.6-1.08,3.667-1.013,7.08.187a15.787,15.787,0,0,1,4.414,2.293l27.175,1.68H246.68Z" transform="translate(-80.978 -150.146)" fill="#fff"/>
    <path id="Path_211" data-name="Path 211" d="M199.628,217.362a2.133,2.133,0,0,1-.573-1.693c.213-.933,1.453-1.507,3.307-1.667a2.293,2.293,0,0,1-.32-1.587c.547-2.507,6.787-2.96,13.934-1A34.671,34.671,0,0,1,222.762,214a1.613,1.613,0,0,1,0-.907c.64-1.867,5.494-1.507,10.814.787a31.254,31.254,0,0,1,3.6,1.853c.413-.733,2.507-.693,4.84.133a10.813,10.813,0,0,1,3.027,1.573l18.6,1.147H181.12Z" transform="translate(-102.836 -130.125)" fill="#fff"/>
    <path id="Path_212" data-name="Path 212" d="M161.865,199.177a3.64,3.64,0,0,1-.36-2.213c.467-2.387,4-3.534,8.88-3.347a7.027,7.027,0,0,1-.187-3.347c1.68-8.547,20.788-10.094,42.669-3.454a106.148,106.148,0,0,1,11.734,4.32,6.28,6.28,0,0,1-.2-3.04c1.173-5.974,12.187-8,26.375-5.534a2.046,2.046,0,0,1,.133-.547c2.08-6.667,17.2-5.667,34.2,2.107,4.24-1.72,12.881-.533,22.228,3.453a58.419,58.419,0,0,1,13.494,7.894,2.667,2.667,0,0,1-.227-1.733c.68-2.44,6.307-2.253,12.574.413a25.761,25.761,0,0,1,8.52,5.587l35.255,2.667H122.41Z" transform="translate(-122.41 -140.995)" fill="#fff"/>
  </g>
  <path id="Path_213" data-name="Path 213" d="M234.905,313.784h54.63L192.05,125.52H137.42Z" transform="translate(-67.297 41.849)" fill="#f8fff8" opacity="0.3"/>
  <path id="Path_214" data-name="Path 214" d="M217.535,313.784h13.441L133.491,125.52H120.05Z" transform="translate(-73.089 41.849)" fill="#f8fff8" opacity="0.3"/>
  <path id="Path_215" data-name="Path 215" d="M357.539,313.784h13.441L273.494,125.52H260.04Z" transform="translate(-26.415 41.849)" fill="#f8fff8" opacity="0.3"/>
  <path id="Path_216" data-name="Path 216" d="M110.54,316.944H433.3V123.6H110.54Zm317.711-5.054H115.594v-183.2H428.251Z" transform="translate(-76.259 41.209)" fill="#d8e7fc"/>
  <g id="Group_103" data-name="Group 103" transform="translate(55.548 279.482)" opacity="0.8">
    <rect id="Rectangle_36" data-name="Rectangle 36" width="33.428" height="44.416" transform="translate(66.11 29.202)" fill="#56a8ed"/>
    <rect id="Rectangle_37" data-name="Rectangle 37" width="27.041" height="24.561" transform="translate(0 49.056)" fill="#62afef"/>
    <rect id="Rectangle_38" data-name="Rectangle 38" width="15.027" height="44.416" transform="translate(60.47 29.202)" fill="#7abaf9"/>
    <rect id="Rectangle_39" data-name="Rectangle 39" width="33.428" height="73.617" transform="translate(27.055)" fill="#56a8ed"/>
    <rect id="Rectangle_40" data-name="Rectangle 40" width="3.547" height="44.416" transform="translate(60.47 29.202)" fill="#62afef"/>
    <rect id="Rectangle_41" data-name="Rectangle 41" width="15.014" height="73.617" transform="translate(21.428)" fill="#7abaf9"/>
    <rect id="Rectangle_42" data-name="Rectangle 42" width="24.028" height="5.094" transform="translate(60.47 18.001) rotate(180)" fill="#7abaf9"/>
    <rect id="Rectangle_43" data-name="Rectangle 43" width="24.028" height="5.094" transform="translate(60.47 27.268) rotate(180)" fill="#7abaf9"/>
    <rect id="Rectangle_44" data-name="Rectangle 44" width="24.028" height="5.094" transform="translate(60.47 36.549) rotate(180)" fill="#7abaf9"/>
    <rect id="Rectangle_45" data-name="Rectangle 45" width="24.028" height="5.094" transform="translate(60.47 45.802) rotate(180)" fill="#7abaf9"/>
    <rect id="Rectangle_46" data-name="Rectangle 46" width="24.028" height="5.094" transform="translate(60.47 55.083) rotate(180)" fill="#7abaf9"/>
    <rect id="Rectangle_47" data-name="Rectangle 47" width="24.028" height="5.094" transform="translate(60.47 64.35) rotate(180)" fill="#7abaf9"/>
    <rect id="Rectangle_48" data-name="Rectangle 48" width="24.028" height="5.094" transform="translate(36.442 68.524)" fill="#7abaf9"/>
    <rect id="Rectangle_49" data-name="Rectangle 49" width="24.028" height="5.094" transform="translate(60.47 8.72) rotate(180)" fill="#7abaf9"/>
    <path id="Path_217" data-name="Path 217" d="M203.65,250.741v22.295h33.415v-32.9H213.037Z" transform="translate(-100.764 -199.418)" fill="#56a8ed"/>
    <path id="Path_218" data-name="Path 218" d="M199.43,257.1v15.934h15.014v-32.9l-9.387,10.6-3.36,3.8Z" transform="translate(-102.171 -199.418)" fill="#7abaf9"/>
    <rect id="Rectangle_50" data-name="Rectangle 50" width="24.028" height="5.094" transform="translate(136.314 45.802) rotate(180)" fill="#7abaf9"/>
    <rect id="Rectangle_51" data-name="Rectangle 51" width="24.028" height="5.094" transform="translate(136.314 55.083) rotate(180)" fill="#7abaf9"/>
    <rect id="Rectangle_52" data-name="Rectangle 52" width="24.028" height="5.094" transform="translate(136.314 64.35) rotate(180)" fill="#7abaf9"/>
    <rect id="Rectangle_53" data-name="Rectangle 53" width="24.028" height="5.094" transform="translate(112.286 68.524)" fill="#7abaf9"/>
    <rect id="Rectangle_54" data-name="Rectangle 54" width="30.082" height="5.894" transform="translate(96.192 29.202) rotate(180)" fill="#56a8ed"/>
    <rect id="Rectangle_55" data-name="Rectangle 55" width="18.628" height="5.894" transform="translate(90.472 23.881) rotate(180)" fill="#56a8ed"/>
    <rect id="Rectangle_56" data-name="Rectangle 56" width="22.815" height="11.441" transform="translate(148.741 62.19)" fill="#56a8ed"/>
    <rect id="Rectangle_57" data-name="Rectangle 57" width="10.254" height="11.441" transform="translate(144.901 62.19)" fill="#7abaf9"/>
    <rect id="Rectangle_58" data-name="Rectangle 58" width="21.975" height="6.027" transform="translate(169.289 62.177) rotate(180)" fill="#56a8ed"/>
    <rect id="Rectangle_59" data-name="Rectangle 59" width="7.094" height="7.48" transform="translate(162.555 56.55) rotate(180)" fill="#56a8ed"/>
    <rect id="Rectangle_60" data-name="Rectangle 60" width="1.773" height="7.174" transform="translate(164.329 66.444)" fill="#62afef"/>
  </g>
  <path id="Path_219" data-name="Path 219" d="M163.5,352.838c7.56-4.827-2.12-19.561-19.734-20.988a35.349,35.349,0,0,0-.16,14.667C145.083,352.384,152.9,359.572,163.5,352.838Z" transform="translate(-65.466 110.641)" fill="url(#linear-gradient-9)"/>
  <path id="Path_220" data-name="Path 220" d="M170.069,355.158c8.814-1.707,5.187-18.974-10.667-26.748a35.255,35.255,0,0,0-5.507,13.574C153.041,348,157.681,357.558,170.069,355.158Z" transform="translate(-61.838 109.494)" fill="url(#linear-gradient-10)"/>
  <path id="Path_221" data-name="Path 221" d="M172.969,355.845c7.814,2.2,11.894-13.241,2.213-25.975a32,32,0,0,0-9.974,8.747C162.141,343.164,162.008,352.791,172.969,355.845Z" transform="translate(-58.63 109.98)" fill="url(#linear-gradient-11)"/>
  <path id="Path_222" data-name="Path 222" d="M174.218,352.908c5.454,4.84,14.814-6.014,12-20.108a28.734,28.734,0,0,0-11.494,3.133C170.471,338.4,166.578,346.121,174.218,352.908Z" transform="translate(-56.48 110.957)" fill="url(#linear-gradient-12)"/>
  <path id="Path_223" data-name="Path 223" d="M201.453,342.491c29.962-11.747,6-70.311-55.03-87.471,0,0-12,26.028-10.667,51.483C136.863,328.237,159.437,359,201.453,342.491Z" transform="translate(-67.887 85.025)" fill="url(#linear-gradient-13)"/>
  <path id="Path_224" data-name="Path 224" d="M148.25,260.7A54.23,54.23,0,0,1,162.2,275.368a38.869,38.869,0,0,1,2.667,4.24,48.231,48.231,0,0,1,2.493,4.347c.707,1.533,1.453,3.027,2.2,4.52l1.107,2.24.88,2.36a129.566,129.566,0,0,1,5.907,19.174c.627,3.307,1.333,6.587,2.027,9.881l1.187,10.054c.187,1.68.52,3.333.613,5.027l.253,5.08c.187,3.387.32,6.774.547,10.174-.093,6.814,0,13.641-.2,20.494-.187,3.427-.44,6.84-.56,10.281l-.213,5.174L181,391l-.24,2.573-.827,10.361-.413,5.2-.253,5.24.493.093,3.6-20.508.453-2.573.28-2.587.573-5.174,1.133-10.361.28-2.587.107-2.6.2-5.214.4-10.414-.387-10.414-.2-5.214c-.08-1.733-.387-3.454-.56-5.187l-1.333-10.347L182.052,311.1a115.634,115.634,0,0,0-6.907-19.681l-1.04-2.387-1.267-2.28-2.56-4.56c-.827-1.533-1.96-2.88-2.92-4.334a39.628,39.628,0,0,0-3.133-4.174,50.99,50.99,0,0,0-15.8-13.507Z" transform="translate(-63.687 86.745)" fill="#e2e2e2"/>
  <path id="Path_225" data-name="Path 225" d="M173.209,315.73c-22.8-8.947-4.56-53.536,41.9-66.59,0,0,9.107,19.8,8.094,39.189C222.332,304.876,205.158,328.251,173.209,315.73Z" transform="translate(-58.631 83.065)" fill="#39c296"/>
  <path id="Path_226" data-name="Path 226" d="M209.379,253.14a135.687,135.687,0,0,0-12.334,17.721c-1.76,3.134-3.52,6.28-5.107,9.521l-2.44,4.827-2.253,4.92a241.748,241.748,0,0,0-13.974,40.936c-.813,3.507-1.493,7.054-2.24,10.587l-1.08,5.334-.827,5.334-1.507,10.667c-.347,3.574-.613,7.174-.867,10.774l-.387,5.334c-.08,1.8-.08,3.6-.133,5.4l-.2,10.774c0,3.587.36,7.187.52,10.774s.44,7.147.76,10.667h.387c.133-7.134,0-14.267.347-21.4l.68-10.667c.12-1.773.2-3.56.36-5.334l.613-5.334,1.227-10.667,1.733-10.347.88-5.267,1.12-5.24c.773-3.48,1.48-6.974,2.307-10.441a300.01,300.01,0,0,1,13.027-40.762,203.425,203.425,0,0,1,19.681-37.882Z" transform="translate(-57.759 84.398)" fill="#e2e2e2"/>
  <path id="Path_227" data-name="Path 227" d="M183.315,311.567c43.069-13.2,15.881-97.512-67.47-128.007,0,0-19.468,35.029-20.321,70.671C94.83,284.765,123,330.048,183.315,311.567Z" transform="translate(-81.27 61.2)" fill="#5ed291"/>
  <path id="Path_228" data-name="Path 228" d="M116.5,191.843q2.373,3.294,4.507,6.747c1.52,2.24,2.92,4.547,4.307,6.854s2.747,4.64,4,7.014,2.667,4.654,3.814,7.107c2.44,4.787,5.014,9.481,7.147,14.414,1.107,2.44,2.28,4.84,3.427,7.254l3.094,7.414,3.08,7.4,2.787,7.507,2.8,7.507c.933,2.507,1.627,5.094,2.44,7.627s1.64,5.08,2.453,7.627l1.24,3.8c.387,1.333.693,2.573,1.04,3.867l4.08,15.481c1.227,5.187,2.253,10.441,3.4,15.654.533,2.667,1.173,5.214,1.627,7.84s.76,5.334,1.213,7.92c.827,5.334,1.813,10.561,2.52,15.854.493,5.334,1.093,10.667,1.707,16l.907,8,.427,8,1,16.121c.653,10.787.24,21.574.867,32.482h.587l.947-16.241.48-8.12c.173-2.667.36-5.414.267-8.12l-.133-16.281V380.44l-.6-8.107-1.2-16.241c-.587-5.334-1.453-10.747-2.16-16.134l-1.12-8c-.427-2.667-1.053-5.334-1.573-8-1.107-5.334-2.107-10.667-3.307-16a345.682,345.682,0,0,0-21.441-61.337c-9.174-19.641-20-38.669-34.149-55.23Z" transform="translate(-74.272 63.81)" fill="#e2e2e2"/>
  <path id="Path_229" data-name="Path 229" d="M162.394,326.914c26.335-19.054-11.894-70.284-75.911-71.644,0,0-5.12,28.455,2.667,53.03C95.724,329.207,125.525,353.582,162.394,326.914Z" transform="translate(-84.831 85.108)" fill="#3cc395"/>
  <path id="Path_230" data-name="Path 230" d="M91.9,259.553a134.325,134.325,0,0,1,18.094,14.667l4.24,4,4,4.16c2.747,2.667,5.2,5.694,7.707,8.614A260.7,260.7,0,0,1,152.3,328.81l5.547,10.134a56.371,56.371,0,0,1,2.573,5.16l2.453,5.24,2.507,5.227c.413.867.853,1.733,1.24,2.667l1.08,2.667c1.4,3.6,2.893,7.16,4.427,10.734s2.773,7.227,4,10.894l3.827,11.027c2.467,7.387,4.427,14.934,7,22.388l.413-.08c-1.747-7.627-3.347-15.294-5.227-22.895l-3.32-11.267c-1.133-3.747-2.133-7.547-3.6-11.187l-4.08-11.014-1.027-2.76c-.373-.907-.8-1.787-1.187-2.667l-2.413-5.334-2.413-5.334a58.511,58.511,0,0,0-2.573-5.334l-5.494-10.467a218.677,218.677,0,0,0-27.628-37.949c-2.667-2.853-5.334-5.76-8.227-8.387l-4.28-4-4.494-3.8A116.631,116.631,0,0,0,92.047,259.14Z" transform="translate(-82.474 86.399)" fill="#e2e2e2"/>
  <path id="Path_231" data-name="Path 231" d="M148.069,251.953a39.734,39.734,0,0,0-10.094-5.4c-1.733-.747-3.547-1.213-5.334-1.787s-3.654-.853-5.494-1.267a59.045,59.045,0,0,0-11.294-.867,33.108,33.108,0,0,0-11.334,2.107v.4a112.1,112.1,0,0,1,21.975,2.28,209.588,209.588,0,0,1,21.534,4.92Z" transform="translate(-78.266 80.891)" fill="#e2e2e2"/>
  <path id="Path_232" data-name="Path 232" d="M140.8,234.492a29.642,29.642,0,0,0-7.56-6.027,43.071,43.071,0,0,0-4.2-2.16c-1.44-.627-2.92-1.147-4.387-1.707a43.842,43.842,0,0,0-9.334-1.893,25.148,25.148,0,0,0-9.707.88v.4a95.527,95.527,0,0,1,17.854,4.387,176.013,176.013,0,0,1,17.214,6.48Z" transform="translate(-77.903 74.205)" fill="#e2e2e2"/>
  <path id="Path_233" data-name="Path 233" d="M154.778,251.064a31.6,31.6,0,0,0,2.934-5.667c.733-1.827,1.413-3.574,1.987-5.254.213-.893.573-1.68.853-2.507l.413-1.24a8.614,8.614,0,0,0,.467-1.2,26.534,26.534,0,0,1,2.667-5.16l-.133-.347a11.508,11.508,0,0,0-4.88,3.774,19.522,19.522,0,0,0-2.854,5.48,37.109,37.109,0,0,0-1.84,12.121Z" transform="translate(-61.641 76.58)" fill="#e2e2e2"/>
  <path id="Path_234" data-name="Path 234" d="M144.324,230.418a21.883,21.883,0,0,0,1.187-4.774c.267-1.493.36-2.947.52-4.334s.213-2.747.347-4a17.335,17.335,0,0,1,1.027-4.334l-.16-.227a8.414,8.414,0,0,0-2.867,3.76,15.414,15.414,0,0,0-1.093,4.627,34.3,34.3,0,0,0,.773,9.414Z" transform="translate(-65.36 70.932)" fill="#e2e2e2"/>
  <path id="Path_235" data-name="Path 235" d="M150.394,392.549h37.055a3.627,3.627,0,0,0,3.6-3.214l5.107-42.909a3.64,3.64,0,0,0-3.614-4.067H145.287a3.627,3.627,0,0,0-3.6,4.067l5.094,42.909A3.654,3.654,0,0,0,150.394,392.549Z" transform="translate(-65.884 114.145)" fill="#3f71e2"/>
  <path id="Path_236" data-name="Path 236" d="M141.65,351.771h56.8a2.4,2.4,0,0,0,2.373-2.027l1.107-7.294a2.387,2.387,0,0,0-2.36-2.76H140.6a2.4,2.4,0,0,0-2.36,2.76l1.12,7.294a2.373,2.373,0,0,0,2.293,2.027Z" transform="translate(-67.034 113.255)" fill="#0050c8"/>
  <path id="Path_237" data-name="Path 237" d="M175.6,279.8H588.846a6.88,6.88,0,0,0,6.867-6.867h0a6.88,6.88,0,0,0-6.867-6.867H175.6a6.867,6.867,0,0,0-6.867,6.867h0A6.867,6.867,0,0,0,175.6,279.8Z" transform="translate(-56.859 88.709)" fill="#d8e7fc"/>
  <path id="Path_238" data-name="Path 238" d="M404.6,279.8H512.5a6.88,6.88,0,0,0,6.867-6.867h0a6.88,6.88,0,0,0-6.867-6.867H404.6a6.867,6.867,0,0,0-6.867,6.867h0A6.867,6.867,0,0,0,404.6,279.8Z" transform="translate(19.491 88.709)" fill="#99c1f9"/>
  <rect id="Rectangle_61" data-name="Rectangle 61" width="13.747" height="159.849" transform="translate(515.307 368.5)" fill="#99c1f9"/>
  <rect id="Rectangle_62" data-name="Rectangle 62" width="13.747" height="159.822" transform="translate(427.075 368.527)" fill="#99c1f9"/>
  <rect id="Rectangle_63" data-name="Rectangle 63" width="6.88" height="159.822" transform="translate(427.075 368.527)" fill="#d8e7fc"/>
  <rect id="Rectangle_64" data-name="Rectangle 64" width="13.747" height="159.822" transform="translate(121.672 368.527)" fill="#99c1f9"/>
  <rect id="Rectangle_65" data-name="Rectangle 65" width="13.721" height="159.849" transform="translate(209.917 368.5)" fill="#d8e7fc"/>
  <rect id="Rectangle_66" data-name="Rectangle 66" width="6.88" height="159.822" transform="translate(121.672 368.527)" fill="#d8e7fc"/>
  <path id="Path_239" data-name="Path 239" d="M485.034,276.37v4.4L471.3,290.584V276.37Z" transform="translate(44.02 92.143)" fill="#d8e7fc"/>
  <path id="Path_240" data-name="Path 240" d="M405.12,276.37h13.734v4.4l-13.734,9.814Z" transform="translate(21.955 92.143)" fill="#d8e7fc"/>
  <path id="Path_241" data-name="Path 241" d="M242.26,276.37h13.734v4.4l-13.734,9.814Z" transform="translate(-32.343 92.143)" fill="url(#linear-gradient-14)"/>
  <path id="Path_242" data-name="Path 242" d="M189.814,276.37v4.4l-13.734,9.814V276.37Z" transform="translate(-54.408 92.143)" fill="#d8e7fc"/>
  <path id="Path_243" data-name="Path 243" d="M452.847,256.058H325.92l9.334-82.618H462.167Z" transform="translate(-4.451 57.826)" fill="#55a4ff" opacity="0.3"/>
  <path id="Path_244" data-name="Path 244" d="M337.961,177.9l-1.347,11.921-9.334,82.6H454.207l9.334-82.6,1.333-11.921Z" transform="translate(-3.997 59.313)" fill="#99c1f9" opacity="0.4"/>
  <path id="Path_245" data-name="Path 245" d="M452.847,268.088H325.92l9.334-82.618H462.167Z" transform="translate(-4.451 61.837)" opacity="0.6" fill="url(#linear-gradient-15)"/>
  <path id="Path_246" data-name="Path 246" d="M448.8,253.912H328.99l4.507-40h119.82Z" transform="translate(-3.427 71.319)" fill="#fff"/>
  <path id="Path_247" data-name="Path 247" d="M365.7,248.522H331.5l3.667-32.482h34.2Z" transform="translate(-2.59 72.029)" fill="#57afff"/>
  <path id="Path_248" data-name="Path 248" d="M371.922,237.535H344.4l2.96-26.135h27.508Z" transform="translate(1.711 70.482)" fill="#164dd6" opacity="0.7"/>
  <path id="Path_249" data-name="Path 249" d="M359.2,212.03H332.83l.987-8.72h26.375Z" transform="translate(-2.147 67.785)" fill="#f9f4ea"/>
  <path id="Path_250" data-name="Path 250" d="M348.677,205.633H335.97l.147-1.213h12.707Z" transform="translate(-1.1 68.155)" fill="url(#linear-gradient-16)"/>
  <path id="Path_251" data-name="Path 251" d="M427.608,230.434H393.42l2.067-18.374h34.2Z" transform="translate(18.054 70.702)" fill="#57afff"/>
  <path id="Path_252" data-name="Path 252" d="M427.262,229.29h-34.2l.16-1.32h34.189Z" transform="translate(17.934 76.006)" fill="#33333d"/>
  <path id="Path_253" data-name="Path 253" d="M427.032,231.33h-34.2l.16-1.32h34.188Z" transform="translate(17.858 76.687)" fill="#33333d"/>
  <path id="Path_254" data-name="Path 254" d="M382.565,209.73H356.19l.987-8.72h26.375Z" transform="translate(5.642 67.018)" fill="#f9f4ea"/>
  <path id="Path_255" data-name="Path 255" d="M442.59,212.03H385.08l.987-8.72h57.51Z" transform="translate(15.274 67.785)" fill="#51cc93"/>
  <path id="Path_256" data-name="Path 256" d="M409.138,205.633H387.19l.147-1.213h21.935Z" transform="translate(15.977 68.155)" fill="#f9f4ea"/>
  <path id="Path_257" data-name="Path 257" d="M408.948,207.343H387l.133-1.213h21.948Z" transform="translate(15.914 68.725)" fill="#f9f4ea"/>
  <path id="Path_258" data-name="Path 258" d="M447.816,202.307H328.01l1.36-12.027H449.177Z" transform="translate(-3.754 63.44)" fill="#fff"/>
  <path id="Path_259" data-name="Path 259" d="M418.79,200.24h-8.72l.987-8.72h8.72Z" transform="translate(23.606 63.854)" fill="#84deae"/>
  <path id="Path_260" data-name="Path 260" d="M409.43,200.24h-8.72l.987-8.72h8.72Z" transform="translate(20.485 63.854)" fill="#57afff"/>
  <path id="Path_261" data-name="Path 261" d="M400.061,200.24h-8.72l.987-8.72h8.72Z" transform="translate(17.361 63.854)" fill="#57afff"/>
  <path id="Path_262" data-name="Path 262" d="M359.995,193.52H331.34l.187-1.68h28.655Z" transform="translate(-2.643 63.961)" fill="#57afff"/>
  <path id="Path_263" data-name="Path 263" d="M359.748,195.76H331.08l.2-1.68h28.655Z" transform="translate(-2.73 64.707)" fill="#57afff"/>
  <path id="Path_264" data-name="Path 264" d="M343.537,198H330.83l.187-1.68h12.707Z" transform="translate(-2.813 65.454)" fill="#57afff"/>
  <path id="Path_265" data-name="Path 265" d="M397.439,239.4H363.25l2.067-18.361h34.189Z" transform="translate(7.995 73.696)" fill="#57afff"/>
  <path id="Path_266" data-name="Path 266" d="M397.092,238.26h-34.2l.147-1.32h34.2Z" transform="translate(7.876 78.997)" fill="#33333d"/>
  <path id="Path_267" data-name="Path 267" d="M396.862,240.3h-34.2l.147-1.307h34.2Z" transform="translate(7.799 79.681)" fill="#33333d"/>
  <path id="Path_268" data-name="Path 268" d="M391.387,230.391H378.28l1.293-11.441h13.107Z" transform="translate(13.007 72.999)" fill="#164dd6" opacity="0.7"/>
  <path id="Path_269" data-name="Path 269" d="M459.834,188.447H332.92l1.347-11.907H461.18Z" transform="translate(-2.117 58.859)" fill="#d3d3d3"/>
  <path id="Path_270" data-name="Path 270" d="M457.11,184.584H334.89l.44-3.934H457.563Z" transform="translate(-1.46 60.23)" fill="#f2f2f2"/>
  <path id="Path_271" data-name="Path 271" d="M337.37,180.17h-2.04l.24-2.04h2.04Z" transform="translate(-1.313 59.39)" fill="#f9f4ea"/>
  <path id="Path_272" data-name="Path 272" d="M340.1,180.17h-2.04l.227-2.04h2.04Z" transform="translate(-0.403 59.39)" fill="#f9f4ea"/>
  <path id="Path_273" data-name="Path 273" d="M342.82,180.17h-2.04l.227-2.04h2.053Z" transform="translate(0.504 59.39)" fill="#f9f4ea"/>
  <path id="Path_274" data-name="Path 274" d="M347.571,283.222,328.01,177.59H464.631L368.719,283.222Z" transform="translate(-3.754 59.21)" fill="url(#linear-gradient-17)"/>
  <path id="Path_275" data-name="Path 275" d="M362.688,258.43H349.981a20.617,20.617,0,0,0-17.057,9.031l-.784,1.156h48.4l-.787-1.16A20.615,20.615,0,0,0,362.688,258.43Z" transform="translate(-2.377 86.162)" fill="#3f71e2"/>
  <path id="Path_276" data-name="Path 276" d="M360.108,259.807c0,.413-3.52.747-7.854.747s-7.854-.333-7.854-.747,3.52-.747,7.854-.747S360.108,259.393,360.108,259.807Z" transform="translate(1.711 86.372)" opacity="0.4" fill="url(#linear-gradient-18)"/>
  <path id="Path_286" data-name="Path 286" d="M296.942,385.11c.827,1.333.92,3.56,6.04,5.467s15.788,2.413,9.974,4.6a28.067,28.067,0,0,1-13.881,1.453c-3.507-.36-5.574.187-9.694.36-5.414.24-5.48-.08-5.04-6.014C284.955,382.816,294.275,380.643,296.942,385.11Z" transform="translate(-18.368 127.638)" fill="#231a66"/>
  <path id="Path_287" data-name="Path 287" d="M284.774,413.724c8.84-30.348,12.947-87.125,28.175-109.339,9.681-14.094,28.482-8.534,21.521,10.374-7.454,20.2-26.321,57.936-36.9,98.192C296.535,416.938,283.761,417.285,284.774,413.724Z" transform="translate(-18.188 98.85)" fill="#3f71e2"/>
  <path id="Path_288" data-name="Path 288" d="M343.227,322.288c8.094-2.987,15.094-30.668-14.667-26.921-13.214,1.653-59.9,5.187-66.937,6.04s-17.334,2.573-18.4,6.174c-5.614,17.988,16.228,34.162,42.509,28.282C303.225,331.929,326.4,328.475,343.227,322.288Z" transform="translate(-32.318 98.361)" fill="#3f71e2"/>
  <path id="Path_289" data-name="Path 289" d="M273.179,267.624c-4.32,3.293-8.947,3.227-21.628,4.747-18.254,2.187-22.735,1.533-34.349-1.12-7.574-1.733-1.613-18.268,8.88-18.668,8.867-.387,39.749,8.96,45.149,8.707C274.806,261.063,276.739,264.957,273.179,267.624Z" transform="translate(-41.834 84.209)" fill="url(#linear-gradient-19)"/>
  <path id="Path_290" data-name="Path 290" d="M214.43,274.035c.787-4.174,4-13.187,17.108-32.348a149.341,149.341,0,0,1,15.214-19.348c5.24-5.76,13.041-3.8,14.867-.133,2.92,5.907,2.893,15.894.32,19.081-14.467,18-26.668,30.948-29.428,35.922C228.538,284.435,213.5,278.982,214.43,274.035Z" transform="translate(-41.636 72.917)" fill="#ccd9f8"/>
  <path id="Path_291" data-name="Path 291" d="M314.052,387.06c.827,1.333,4.6,4.48,9.72,6.387s15.788,2.413,9.987,4.6-12.747,1.333-16.268,1a73,73,0,0,0-11-.107c-5.427.24-5.48-.08-5.04-6.014C302.065,384.766,311.386,382.593,314.052,387.06Z" transform="translate(-12.664 128.288)" fill="#231a66"/>
  <path id="Path_292" data-name="Path 292" d="M247.273,203.508c1.093,10.974,1.413,13.334,6.214,17.894s12.281,5.147,17.481,5.147c5.614,0,9.334-6.774,10.587-11.414a67.577,67.577,0,0,0,1.093-25.855c-.8-6.094-8.307-13.481-16.068-13.481S244.593,176.707,247.273,203.508Z" transform="translate(-30.782 58.613)" fill="#f0bc99"/>
  <path id="Path_293" data-name="Path 293" d="M251.558,212.865c-.293,3.8-.573,8.174-.707,12.174A10.481,10.481,0,0,0,260,235.706a4.824,4.824,0,0,0,.6,0c4.734,0,10.307-4.294,9.894-9.04-.28-3.08-.373-6.187-.387-8.921a12.361,12.361,0,0,0-8.227-11.574h0a7.76,7.76,0,0,0-10.321,6.694Z" transform="translate(-29.48 68.591)" fill="#f0bc99"/>
  <path id="Path_294" data-name="Path 294" d="M235.539,256.294c8.814,28.948,11.707,46.256,9.974,66.484h66.324s-.387-49.216-4.827-83.231A25.481,25.481,0,0,0,293,220.039c-4.987-2.667-14.014-3.907-17.681-3.907H263.061a46.668,46.668,0,0,0-12.934,1.6C232.046,223.279,230.445,239.52,235.539,256.294Z" transform="translate(-35.423 72.057)" fill="#ccd9f8"/>
  <path id="Path_295" data-name="Path 295" d="M243.258,336.686s-5.734-13.921-.28-40.576H309.3a378.341,378.341,0,0,1,2.413,40.576Z" transform="translate(-32.888 98.725)" fill="#0050c8"/>
  <path id="Path_296" data-name="Path 296" d="M301.813,415.142c11.281-29.522,20-85.778,37.015-106.672,10.8-13.254,29.082-6.174,20.588,12.107-9.067,19.534-30.962,55.59-44.789,94.845C313.267,419.315,300.533,418.609,301.813,415.142Z" transform="translate(-12.518 100.566)" fill="#3f71e2"/>
  <path id="Path_297" data-name="Path 297" d="M365.475,327.783c8.307-2.32,17.548-29.335-12.427-28-13.334.573-60.123.267-67.19.56s-17.441,1.133-18.854,4.627c-7.067,17.481,13.334,35.389,40,31.668C324.886,334.13,348.261,332.57,365.475,327.783Z" transform="translate(-24.565 99.933)" fill="#3f71e2"/>
  <path id="Path_298" data-name="Path 298" d="M271.79,196.24c-1.547,3.8-1.187,7.534.8,8.347s4.854-1.613,6.4-5.4,1.2-7.534-.787-8.347S273.35,192.44,271.79,196.24Z" transform="translate(-22.818 63.574)" fill="#f0bc99"/>
  <path id="Path_299" data-name="Path 299" d="M252.159,196.24c1.56,3.8,1.2,7.534-.787,8.347s-4.854-1.613-6.4-5.4-1.2-7.534.787-8.347S250.665,192.44,252.159,196.24Z" transform="translate(-31.761 63.574)" fill="#f0bc99"/>
  <path id="Path_300" data-name="Path 300" d="M249.86,183.284c4.267,6.374,24.921,6.974,31.668,4.614s6.267-15.374-3.374-16.268c-5.427,0-1.493,1.333-5.894,3.08C270.034,175.6,245.3,176.47,249.86,183.284Z" transform="translate(-29.996 57.222)" fill="#21283a"/>
  <path id="Path_301" data-name="Path 301" d="M339.638,232.983c2.76-1.733,26.388-16.721,26.108-10.854-.307,6.507-8.414,13.507-11.347,15.508-5.334,3.654-11.147,4.84-13.334,1.96C339.491,237.556,337.011,234.623,339.638,232.983Z" transform="translate(-0.26 73.607)" fill="#f0bc99"/>
  <path id="Path_302" data-name="Path 302" d="M368.718,232.6c-5,1.093-35.122,10.161-44.549,14.907-5.44-2.987-17.214-15.134-36.362-26.668-7.107-4.267-13.587-2.827-19.361.373-3.574,1.973-5.174,9.854.813,14.841a149.339,149.339,0,0,0,20,14.307c19.734,12.241,28.895,15.027,33.1,15.628a2.265,2.265,0,0,0,.52,0h.16a2.2,2.2,0,0,0,.427-.093,4.622,4.622,0,0,0,.813-.16,169.026,169.026,0,0,0,32.642-15.388c12.121-7.134,13.414-6.494,15.868-11.254a4.24,4.24,0,0,0-4.067-6.494Z" transform="translate(-24.674 72.746)" fill="#ccd9f8"/>
  <path id="Path_303" data-name="Path 303" d="M274.513,180.165c6.347,3.84,7.827,7.2,7.654,15.067s-3.547,21.335-18.014,24.268-17.894-11.361-18.774-21.334-.307-17.334,7.014-19.094C263.259,176.485,270.66,177.832,274.513,180.165Z" transform="translate(-31.408 59.234)" fill="#21283a"/>
  <path id="Path_304" data-name="Path 304" d="M330.722,393.4a4.813,4.813,0,0,1-4.707-3.84H244a4.8,4.8,0,0,1-9.507-.96,8.654,8.654,0,0,1,8.681-8.6h83.751a8.641,8.641,0,0,1,8.64,8.641,4.8,4.8,0,0,1-4.84,4.76Z" transform="translate(-34.934 126.694)" fill="#f1d27f"/>
  <path id="Path_305" data-name="Path 305" d="M361.468,349.735H336.133c-13.334,0-21.868-7.054-23.908-19.881-2.493-15.708-7.134-67.084-7.187-67.59a5.987,5.987,0,0,0-7.347-5.334H221.46a7.627,7.627,0,0,0-6.147,7.907c.187,2.133,4.72,52.323,7.294,68.457,2.973,18.668,16.388,29.908,35.869,29.908H360.041a7.694,7.694,0,0,0,7.454-6.747,5.947,5.947,0,0,0-6.027-6.72Z" transform="translate(-41.331 85.608)" fill="#f1d27f"/>
  <path id="Path_306" data-name="Path 306" d="M263.85,336.6h22.668v9.734a1.867,1.867,0,0,1-1.867,1.867H265.73a1.867,1.867,0,0,1-1.867-1.867V336.6Z" transform="translate(-25.145 112.224)" fill="#f1d27f"/>
  <rect id="Rectangle_67" data-name="Rectangle 67" width="15.254" height="45.189" transform="translate(242.452 460.425)" fill="#d8e7fc"/>
  <path id="Path_307" data-name="Path 307" d="M266.53,373h16.828a1.84,1.84,0,0,1,1.84,1.84v12.241H264.69V374.84A1.84,1.84,0,0,1,266.53,373Z" transform="translate(-24.865 124.36)" fill="#d8b058"/>
  <path id="Path_308" data-name="Path 308" d="M299.182,393.4a4.814,4.814,0,0,1-4.707-3.84H262.914a4.8,4.8,0,0,1-9.494-.96,8.64,8.64,0,0,1,8.64-8.6H295.4a8.654,8.654,0,0,1,8.641,8.64,4.8,4.8,0,0,1-4.854,4.76Z" transform="translate(-28.622 126.694)" fill="#d8b058"/>
  <path id="Path_309" data-name="Path 309" d="M266.394,392.984a6.547,6.547,0,1,1-6.547-6.534,6.547,6.547,0,0,1,6.547,6.534Z" transform="translate(-28.662 128.845)" fill="#d8b058"/>
  <path id="Path_310" data-name="Path 310" d="M263.987,392.984a6.534,6.534,0,1,1-6.534-6.534A6.534,6.534,0,0,1,263.987,392.984Z" transform="translate(-29.456 128.845)" fill="#f1d27f"/>
  <path id="Path_311" data-name="Path 311" d="M297.114,392.984a6.547,6.547,0,1,1-6.534-6.534A6.547,6.547,0,0,1,297.114,392.984Z" transform="translate(-18.42 128.845)" fill="#d8b058"/>
  <path id="Path_312" data-name="Path 312" d="M294.724,392.984a6.547,6.547,0,1,1-6.547-6.534,6.547,6.547,0,0,1,6.547,6.534Z" transform="translate(-19.217 128.845)" fill="#f1d27f"/>
  <path id="Path_313" data-name="Path 313" d="M247.474,392.984a6.547,6.547,0,1,1-6.547-6.534A6.547,6.547,0,0,1,247.474,392.984Z" transform="translate(-34.97 128.845)" fill="#d8b058"/>
  <path id="Path_314" data-name="Path 314" d="M245.074,392.984a6.547,6.547,0,1,1-6.534-6.534A6.547,6.547,0,0,1,245.074,392.984Z" transform="translate(-35.771 128.845)" fill="#f1d27f"/>
  <path id="Path_315" data-name="Path 315" d="M316.027,392.984a6.534,6.534,0,1,1-6.534-6.534A6.534,6.534,0,0,1,316.027,392.984Z" transform="translate(-12.105 128.845)" fill="#d8b058"/>
  <path id="Path_316" data-name="Path 316" d="M313.644,392.984a6.547,6.547,0,1,1-6.534-6.534,6.547,6.547,0,0,1,6.534,6.534Z" transform="translate(-12.909 128.845)" fill="#f1d27f"/>
  <path id="Path_317" data-name="Path 317" d="M281.914,350.7l-15.254-4.267V345.3h15.254Z" transform="translate(-24.208 115.125)" fill="#cecece"/>
  <path id="Path_318" data-name="Path 318" d="M286.585,341.987l-22.734-4.254V336.6h22.734Z" transform="translate(-25.145 112.224)" fill="#d8b058"/>
  <path id="Path_319" data-name="Path 319" d="M340.98,363.213H315.645c-19.481,0-32.9-11.187-35.869-29.908-2.573-16.134-7.107-66.324-7.294-68.457a7.627,7.627,0,0,1,6.147-7.907,5.987,5.987,0,0,1,7.347,5.334c0,.507,4.694,51.883,7.187,67.59,2.04,12.827,10.534,19.881,23.908,19.881h25.335a5.947,5.947,0,0,1,6.027,6.734A7.694,7.694,0,0,1,340.98,363.213Z" transform="translate(-22.271 85.612)" fill="#d8b058"/>
  <path id="Path_321" data-name="Path 321" d="M381.2,249.391h0c-10.214,2.893-32.1,9.747-39.882,13.667-5.44-2.987-17.214-15.134-36.362-26.668a17.455,17.455,0,0,0-8.08-2.667,52.108,52.108,0,0,0-14.4-2.787v-1.893a11.884,11.884,0,0,0-.107-1.187c5.427-.267,9.014-6.84,10.254-11.387a46.556,46.556,0,0,0,1.147-5.787,9.8,9.8,0,0,0,4.254-5.2c1.56-3.8,1.2-7.534-.787-8.347a3.12,3.12,0,0,0-2.907.64c-.093-2.253-.28-4.627-.613-7.16a10.668,10.668,0,0,0-.733-2.667.526.526,0,0,0,.4-.12c6.667-2.347,6.267-15.374-3.374-16.268-5.427,0-1.493,1.333-5.894,3.08-2.053.827-23,1.613-22.948,7-5.094,2.2-5.987,8-5.547,15.628-1.773,1.013-2.053,4.56-.56,8.2a12.161,12.161,0,0,0,2.347,3.747,26.2,26.2,0,0,0,2.293,5.707,13.961,13.961,0,0,0,4.56,7.534,7.747,7.747,0,0,0-.333,1.707c-.173,2.213-.333,4.627-.467,7.04a36.265,36.265,0,0,0-6.894,1.333c-6.894,2.12-11.374,5.787-14.027,10.427a174.8,174.8,0,0,0-10.787,14.387c-11.654,17.014-15.467,26.015-16.734,30.735-1.8,4.08-1.68,8.32,1.24,9.747,1.213,13.147,4.72,50.363,6.867,63.83,2.974,18.668,16.388,29.908,35.869,29.908h21.561v8.36a3.24,3.24,0,0,0,3.24,3.24h.507v37a3.187,3.187,0,0,0-2.667,3.133V449.5H250.059a8.654,8.654,0,0,0-8.64,8.64,4.24,4.24,0,0,0,.093.827,6.52,6.52,0,0,0,3.12,12.254,6.243,6.243,0,0,0,1.587-.227,6.442,6.442,0,0,0,1.6.227,6.52,6.52,0,0,0,3.374-12.121h15.294a6.507,6.507,0,0,0,4.974,11.894,6.242,6.242,0,0,0,1.587.227A6.52,6.52,0,0,0,276.42,459.1H307.4a6.52,6.52,0,0,0,3.36,12.121,6.267,6.267,0,0,0,1.6-.227,6.351,6.351,0,0,0,1.6.227,6.52,6.52,0,0,0,6.094-4.227,23.164,23.164,0,0,1,2.454.12,33.2,33.2,0,0,0,7.467.107,5.8,5.8,0,0,0,.507.933,1.827,1.827,0,0,0,1.773,1.867,6.468,6.468,0,0,0,3.747,1.2,6.242,6.242,0,0,0,1.587-.227,6.348,6.348,0,0,0,1.6.227,6.574,6.574,0,0,0,3.827-1.253c1.213,0,2.413.093,3.614.213,3.52.373,10.454,1.187,16.268-1s-4.867-2.667-9.987-4.6a25.709,25.709,0,0,1-9.08-5.587.475.475,0,0,0,.08-.133c13.2-37.5,33.735-72,43.456-92.072a18.882,18.882,0,0,0,3.493-11.147,10.121,10.121,0,0,0-3.2-8.12c-3.027-3.24-8.454-5.334-17.334-4.987-2.8.12-7.107.2-12.2.253a9.027,9.027,0,0,0-2.387-2.667c-3.28-2.974-8.867-4.654-17.721-3.547-4.08.52-11.361,1.2-19.668,1.933-.067-.533-.093-.827-.093-.827s-.28-35.082-3.04-66.47c13.774,7.84,20.8,9.894,24.321,10.4a2.268,2.268,0,0,0,.52,0h.16a2.2,2.2,0,0,0,.427-.093,4.612,4.612,0,0,0,.813-.16A169.025,169.025,0,0,0,374.065,265.9c8.974-5.334,12-6.307,13.987-8.414a20.2,20.2,0,0,0,7.934-3.44c2.92-2,11.041-9,11.347-15.508C407.587,232.67,383.959,247.657,381.2,249.391ZM244.125,278.539c.413,1.44.813,2.84,1.187,4.214l-4-.907Zm110.793,99.605h-5.734l.8-1.88,5.894-.747C355.544,376.384,355.224,377.264,354.918,378.145Zm-55.39,62.083v-37h.493a3.24,3.24,0,0,0,3.24-3.24v-8.36H321.3c-4.094,20-7.254,41.576-11.307,57.83h-7.84v-6.094a3.187,3.187,0,0,0-2.627-3.133Zm26.908,20.788a12.426,12.426,0,0,1-3.627-1.96h8.227a1.413,1.413,0,0,0,.453.88,6.453,6.453,0,0,0-1.467,2.093,27.857,27.857,0,0,1-3.587-1.013ZM334.25,449.5H322.636a506.416,506.416,0,0,1,20.841-57.83h7.014c-5.907,19.374-10.894,41.122-16.241,57.83Z" transform="translate(-41.822 57.199)" fill="none"/>
  <g id="Group_112" data-name="Group 112" transform="translate(-1758.78 240)">
    <path id="Path_277" data-name="Path 277" d="M435.626,134.66H111.53l2.362-5H437.974Z" transform="translate(1677.851 -204.771)" fill="#99c1f9"/>
    <path id="Path_278" data-name="Path 278" d="M147.367,174.525a1.16,1.16,0,0,1-1.147-1.16V131.789a1.16,1.16,0,0,1,2.307,0v41.576a1.16,1.16,0,0,1-1.16,1.16Z" transform="translate(1689.417 -204.406)" fill="#99c1f9"/>
    <path id="Path_279" data-name="Path 279" d="M315.927,174.525a1.147,1.147,0,0,1-1.147-1.16V131.789a1.16,1.16,0,0,1,2.307,0v41.576a1.16,1.16,0,0,1-1.16,1.16Z" transform="translate(1751.363 -204.406)" fill="#99c1f9"/>
    <path id="Path_280" data-name="Path 280" d="M435.626,139.864H111.53l2.362-5.014H437.974Z" transform="translate(1677.851 -203.04)" fill="#99c1f9"/>
    <path id="Path_281" data-name="Path 281" d="M435.626,145.05H111.53l2.362-5H437.974Z" transform="translate(1677.851 -201.307)" fill="#99c1f9"/>
    <path id="Path_282" data-name="Path 282" d="M435.626,150.25H111.53l2.362-5H437.974Z" transform="translate(1677.851 -199.573)" fill="#99c1f9"/>
    <path id="Path_283" data-name="Path 283" d="M435.626,155.454H111.53l2.362-5.014H437.974Z" transform="translate(1677.851 -197.842)" fill="#99c1f9"/>
    <path id="Path_284" data-name="Path 284" d="M435.626,160.64H111.53l2.362-5H437.974Z" transform="translate(1677.851 -196.109)" fill="#99c1f9"/>
    <path id="Path_285" data-name="Path 285" d="M435.626,165.84H111.53l2.362-5H437.974Z" transform="translate(1677.851 -194.375)" fill="#99c1f9"/>
  </g>
  <g id="Group_113" data-name="Group 113" transform="translate(-740.065)">
    <path id="Path_322" data-name="Path 322" d="M98.155,131.337A14.547,14.547,0,1,1,83.647,116.79a14.547,14.547,0,0,1,14.507,14.547Z" transform="translate(797.691 38.938)" fill="#f1d27f"/>
    <path id="Path_323" data-name="Path 323" d="M101.869,144.915v-12a6.454,6.454,0,0,0-6.427-6.427H89.468V0H85.135V126.447H79.148a6.454,6.454,0,0,0-6.48,6.427v12A29.255,29.255,0,0,0,58,170.209h58.51a29.228,29.228,0,0,0-14.641-25.295Z" transform="translate(794.004)" fill="#3f71e2"/>
  </g>
</svg>
