<svg xmlns="http://www.w3.org/2000/svg" xmlns:xlink="http://www.w3.org/1999/xlink" width="799.87" height="533.256" viewBox="0 0 799.87 533.256">
  <defs>
    <clipPath id="clip-path">
      <rect id="Rectangle_34" data-name="Rectangle 34" width="799.87" height="533.256" fill="none"/>
    </clipPath>
    <clipPath id="clip-path-2">
      <path id="Path_198" data-name="Path 198" d="M973.435,673.348c106.033-15.828,110.486-100.339,76.818-147.341-47.709-66.577-91.258-55.736-24.721-165.342,22.588-37.229,31.282-84.778,14.161-125.887-12.307-29.575-37.749-53.883-68.5-62.91-17.094-5-35.189-5.334-52.7-8.667s-35.508-10.4-45.709-25.015c-9.827-14.067-10.667-32.575-8.294-49.576,5.667-40.882,28-78.311,30.015-119.833,1.68-34.989-9.894-75.164-34.6-100.619-32.348-33.335-82.671-40.5-126.807-43.069-51.843-3-104.1,4.76-153.342,20.854-63.15,20.6-121.473,54.6-173.343,96.005-46.2,36.9-88,80.284-117.513,131.5C242.089,154.533,215.021,286.54,310.279,344.5c114.673,69.777,188.677-51.189,194.9,67.83,3.72,71.23,54.736,182.677,193.877,127.127S820.734,696.149,973.435,673.348Z" transform="translate(-246.293 175.546)" fill="none"/>
    </clipPath>
  </defs>
  <g id="Group_101" data-name="Group 101" clip-path="url(#clip-path)">
    <path id="Path_195" data-name="Path 195" d="M973.435,673.348c106.033-15.828,110.486-100.339,76.818-147.341-47.709-66.577-91.258-55.736-24.721-165.342,22.588-37.229,31.282-84.778,14.161-125.887-12.307-29.575-37.749-53.883-68.5-62.91-17.094-5-35.189-5.334-52.7-8.667s-35.508-10.4-45.709-25.015c-9.827-14.067-10.667-32.575-8.294-49.576,5.667-40.882,28-78.311,30.015-119.833,1.68-34.989-9.894-75.164-34.6-100.619-32.348-33.335-82.671-40.5-126.807-43.069-51.843-3-104.1,4.76-153.342,20.854-63.15,20.6-121.473,54.6-173.343,96.005-46.2,36.9-88,80.284-117.513,131.5C242.089,154.533,215.021,286.54,310.279,344.5c114.673,69.777,188.677-51.189,194.9,67.83,3.72,71.23,54.736,182.677,193.877,127.127S820.734,696.149,973.435,673.348Z" transform="translate(76.782 -58.528)" fill="#3f71e2"/>
    <g id="Group_100" data-name="Group 100" transform="translate(323.075 -234.073)" clip-path="url(#clip-path-2)">
      <path id="Path_196" data-name="Path 196" d="M259.242,137.131c2.147-71.751,57.976-81.338,91.885-62.67,48,26.455,44.269,56.27,111.913,3.347,22.975-18.014,53.9-27.548,82.578-19.414,20.641,5.84,38.762,20.841,47.189,40.562,4.68,10.974,6.347,22.975,9.934,34.349s9.721,22.788,20.241,28.415c10.121,5.427,22.495,4.507,33.615,1.6,26.668-7.014,49.843-24.828,77.338-29.442,23.135-3.894,50.763.627,69.644,15.041,24.708,18.868,33.455,51.723,38.669,80.9a280.014,280.014,0,0,1-1.733,103.619c-8.694,43.616-26.668,85.071-50.149,122.86-20.868,33.628-46.416,64.817-78.124,88.525-50.149,37.5-135.794,65.924-181.85,7.174-55.47-70.67,19.108-129.474-60.523-124.207-47.643,3.16-125.727-21.948-99.845-118.833S256.176,240.456,259.242,137.131Z" transform="translate(-241.992 252.564)" fill="#0050c8"/>
      <path id="Path_197" data-name="Path 197" d="M266.748,136.447C291.5,73.39,344.166,82.6,368.354,109.979c34.269,38.8,21.428,64.083,98.379,38.669,26.121-8.64,56.63-7.267,79.538,9.081,16.468,11.761,27.8,30.868,29,51.069.667,11.241-1.667,22.428-2.107,33.682s1.333,23.335,8.934,31.7c7.267,8,18.561,11.161,29.335,12.121,25.975,2.28,52.19-6.187,78.044-1.547,21.788,3.907,44.9,16.721,57.083,35.535,16,24.641,13.254,56.6,8.587,84.191a264.257,264.257,0,0,1-34.535,91.512c-21.615,36-50.8,67.084-83.671,93.192-29.335,23.228-61.883,42.8-97.605,53.776-56.5,17.334-141.648,15.334-163.862-51.536-26.761-80.5,58.2-108.953-14.214-129.62-43.349-12.361-104.726-59.537-50.883-137.341S231.12,227.279,266.748,136.447Z" transform="translate(-241.524 263.742)" fill="#3f71e2"/>
    </g>
  </g>
</svg>
