<svg id="Component_7_1" data-name="Component 7 – 1" xmlns="http://www.w3.org/2000/svg" xmlns:xlink="http://www.w3.org/1999/xlink" width="1440" height="677" viewBox="0 0 1440 677">
  <defs>
    <clipPath id="clip-path">
      <rect width="194.161" height="139.896" fill="none"/>
    </clipPath>
    <clipPath id="clip-path-2">
      <rect id="Rectangle_74" data-name="Rectangle 74" width="394" height="524" transform="translate(1046 1348)" fill="#fff" stroke="#707070" stroke-width="1"/>
    </clipPath>
  </defs>
  <rect id="Rectangle_71" data-name="Rectangle 71" width="1440" height="677" fill="#2f5bea"/>
  <g id="Repeat_Grid_1" data-name="Repeat Grid 1" transform="translate(180 157.104)" clip-path="url(#clip-path)">
    <g id="Group_120" data-name="Group 120" transform="translate(-119 -1478.104)">
      <circle id="Ellipse_18" data-name="Ellipse 18" cx="3.948" cy="3.948" r="3.948" transform="translate(119 1478.104)" fill="#2753e2"/>
      <circle id="Ellipse_19" data-name="Ellipse 19" cx="3.948" cy="3.948" r="3.948" transform="translate(129.265 1478.104)" fill="#2753e2"/>
    </g>
    <g id="Group_120-2" data-name="Group 120" transform="translate(-97 -1478.104)">
      <circle id="Ellipse_18-2" data-name="Ellipse 18" cx="3.948" cy="3.948" r="3.948" transform="translate(119 1478.104)" fill="#2753e2"/>
      <circle id="Ellipse_19-2" data-name="Ellipse 19" cx="3.948" cy="3.948" r="3.948" transform="translate(129.265 1478.104)" fill="#2753e2"/>
    </g>
    <g id="Group_120-3" data-name="Group 120" transform="translate(-75 -1478.104)">
      <circle id="Ellipse_18-3" data-name="Ellipse 18" cx="3.948" cy="3.948" r="3.948" transform="translate(119 1478.104)" fill="#2753e2"/>
      <circle id="Ellipse_19-3" data-name="Ellipse 19" cx="3.948" cy="3.948" r="3.948" transform="translate(129.265 1478.104)" fill="#2753e2"/>
    </g>
    <g id="Group_120-4" data-name="Group 120" transform="translate(-53 -1478.104)">
      <circle id="Ellipse_18-4" data-name="Ellipse 18" cx="3.948" cy="3.948" r="3.948" transform="translate(119 1478.104)" fill="#2753e2"/>
      <circle id="Ellipse_19-4" data-name="Ellipse 19" cx="3.948" cy="3.948" r="3.948" transform="translate(129.265 1478.104)" fill="#2753e2"/>
    </g>
    <g id="Group_120-5" data-name="Group 120" transform="translate(-31 -1478.104)">
      <circle id="Ellipse_18-5" data-name="Ellipse 18" cx="3.948" cy="3.948" r="3.948" transform="translate(119 1478.104)" fill="#2753e2"/>
      <circle id="Ellipse_19-5" data-name="Ellipse 19" cx="3.948" cy="3.948" r="3.948" transform="translate(129.265 1478.104)" fill="#2753e2"/>
    </g>
    <g id="Group_120-6" data-name="Group 120" transform="translate(-9 -1478.104)">
      <circle id="Ellipse_18-6" data-name="Ellipse 18" cx="3.948" cy="3.948" r="3.948" transform="translate(119 1478.104)" fill="#2753e2"/>
      <circle id="Ellipse_19-6" data-name="Ellipse 19" cx="3.948" cy="3.948" r="3.948" transform="translate(129.265 1478.104)" fill="#2753e2"/>
    </g>
    <g id="Group_120-7" data-name="Group 120" transform="translate(13 -1478.104)">
      <circle id="Ellipse_18-7" data-name="Ellipse 18" cx="3.948" cy="3.948" r="3.948" transform="translate(119 1478.104)" fill="#2753e2"/>
      <circle id="Ellipse_19-7" data-name="Ellipse 19" cx="3.948" cy="3.948" r="3.948" transform="translate(129.265 1478.104)" fill="#2753e2"/>
    </g>
    <g id="Group_120-8" data-name="Group 120" transform="translate(35 -1478.104)">
      <circle id="Ellipse_18-8" data-name="Ellipse 18" cx="3.948" cy="3.948" r="3.948" transform="translate(119 1478.104)" fill="#2753e2"/>
      <circle id="Ellipse_19-8" data-name="Ellipse 19" cx="3.948" cy="3.948" r="3.948" transform="translate(129.265 1478.104)" fill="#2753e2"/>
    </g>
    <g id="Group_120-9" data-name="Group 120" transform="translate(57 -1478.104)">
      <circle id="Ellipse_18-9" data-name="Ellipse 18" cx="3.948" cy="3.948" r="3.948" transform="translate(119 1478.104)" fill="#2753e2"/>
      <circle id="Ellipse_19-9" data-name="Ellipse 19" cx="3.948" cy="3.948" r="3.948" transform="translate(129.265 1478.104)" fill="#2753e2"/>
    </g>
    <g id="Group_120-10" data-name="Group 120" transform="translate(-119 -1466.104)">
      <circle id="Ellipse_18-10" data-name="Ellipse 18" cx="3.948" cy="3.948" r="3.948" transform="translate(119 1478.104)" fill="#2753e2"/>
      <circle id="Ellipse_19-10" data-name="Ellipse 19" cx="3.948" cy="3.948" r="3.948" transform="translate(129.265 1478.104)" fill="#2753e2"/>
    </g>
    <g id="Group_120-11" data-name="Group 120" transform="translate(-97 -1466.104)">
      <circle id="Ellipse_18-11" data-name="Ellipse 18" cx="3.948" cy="3.948" r="3.948" transform="translate(119 1478.104)" fill="#2753e2"/>
      <circle id="Ellipse_19-11" data-name="Ellipse 19" cx="3.948" cy="3.948" r="3.948" transform="translate(129.265 1478.104)" fill="#2753e2"/>
    </g>
    <g id="Group_120-12" data-name="Group 120" transform="translate(-75 -1466.104)">
      <circle id="Ellipse_18-12" data-name="Ellipse 18" cx="3.948" cy="3.948" r="3.948" transform="translate(119 1478.104)" fill="#2753e2"/>
      <circle id="Ellipse_19-12" data-name="Ellipse 19" cx="3.948" cy="3.948" r="3.948" transform="translate(129.265 1478.104)" fill="#2753e2"/>
    </g>
    <g id="Group_120-13" data-name="Group 120" transform="translate(-53 -1466.104)">
      <circle id="Ellipse_18-13" data-name="Ellipse 18" cx="3.948" cy="3.948" r="3.948" transform="translate(119 1478.104)" fill="#2753e2"/>
      <circle id="Ellipse_19-13" data-name="Ellipse 19" cx="3.948" cy="3.948" r="3.948" transform="translate(129.265 1478.104)" fill="#2753e2"/>
    </g>
    <g id="Group_120-14" data-name="Group 120" transform="translate(-31 -1466.104)">
      <circle id="Ellipse_18-14" data-name="Ellipse 18" cx="3.948" cy="3.948" r="3.948" transform="translate(119 1478.104)" fill="#2753e2"/>
      <circle id="Ellipse_19-14" data-name="Ellipse 19" cx="3.948" cy="3.948" r="3.948" transform="translate(129.265 1478.104)" fill="#2753e2"/>
    </g>
    <g id="Group_120-15" data-name="Group 120" transform="translate(-9 -1466.104)">
      <circle id="Ellipse_18-15" data-name="Ellipse 18" cx="3.948" cy="3.948" r="3.948" transform="translate(119 1478.104)" fill="#2753e2"/>
      <circle id="Ellipse_19-15" data-name="Ellipse 19" cx="3.948" cy="3.948" r="3.948" transform="translate(129.265 1478.104)" fill="#2753e2"/>
    </g>
    <g id="Group_120-16" data-name="Group 120" transform="translate(13 -1466.104)">
      <circle id="Ellipse_18-16" data-name="Ellipse 18" cx="3.948" cy="3.948" r="3.948" transform="translate(119 1478.104)" fill="#2753e2"/>
      <circle id="Ellipse_19-16" data-name="Ellipse 19" cx="3.948" cy="3.948" r="3.948" transform="translate(129.265 1478.104)" fill="#2753e2"/>
    </g>
    <g id="Group_120-17" data-name="Group 120" transform="translate(35 -1466.104)">
      <circle id="Ellipse_18-17" data-name="Ellipse 18" cx="3.948" cy="3.948" r="3.948" transform="translate(119 1478.104)" fill="#2753e2"/>
      <circle id="Ellipse_19-17" data-name="Ellipse 19" cx="3.948" cy="3.948" r="3.948" transform="translate(129.265 1478.104)" fill="#2753e2"/>
    </g>
    <g id="Group_120-18" data-name="Group 120" transform="translate(57 -1466.104)">
      <circle id="Ellipse_18-18" data-name="Ellipse 18" cx="3.948" cy="3.948" r="3.948" transform="translate(119 1478.104)" fill="#2753e2"/>
      <circle id="Ellipse_19-18" data-name="Ellipse 19" cx="3.948" cy="3.948" r="3.948" transform="translate(129.265 1478.104)" fill="#2753e2"/>
    </g>
    <g id="Group_120-19" data-name="Group 120" transform="translate(-119 -1454.104)">
      <circle id="Ellipse_18-19" data-name="Ellipse 18" cx="3.948" cy="3.948" r="3.948" transform="translate(119 1478.104)" fill="#2753e2"/>
      <circle id="Ellipse_19-19" data-name="Ellipse 19" cx="3.948" cy="3.948" r="3.948" transform="translate(129.265 1478.104)" fill="#2753e2"/>
    </g>
    <g id="Group_120-20" data-name="Group 120" transform="translate(-97 -1454.104)">
      <circle id="Ellipse_18-20" data-name="Ellipse 18" cx="3.948" cy="3.948" r="3.948" transform="translate(119 1478.104)" fill="#2753e2"/>
      <circle id="Ellipse_19-20" data-name="Ellipse 19" cx="3.948" cy="3.948" r="3.948" transform="translate(129.265 1478.104)" fill="#2753e2"/>
    </g>
    <g id="Group_120-21" data-name="Group 120" transform="translate(-75 -1454.104)">
      <circle id="Ellipse_18-21" data-name="Ellipse 18" cx="3.948" cy="3.948" r="3.948" transform="translate(119 1478.104)" fill="#2753e2"/>
      <circle id="Ellipse_19-21" data-name="Ellipse 19" cx="3.948" cy="3.948" r="3.948" transform="translate(129.265 1478.104)" fill="#2753e2"/>
    </g>
    <g id="Group_120-22" data-name="Group 120" transform="translate(-53 -1454.104)">
      <circle id="Ellipse_18-22" data-name="Ellipse 18" cx="3.948" cy="3.948" r="3.948" transform="translate(119 1478.104)" fill="#2753e2"/>
      <circle id="Ellipse_19-22" data-name="Ellipse 19" cx="3.948" cy="3.948" r="3.948" transform="translate(129.265 1478.104)" fill="#2753e2"/>
    </g>
    <g id="Group_120-23" data-name="Group 120" transform="translate(-31 -1454.104)">
      <circle id="Ellipse_18-23" data-name="Ellipse 18" cx="3.948" cy="3.948" r="3.948" transform="translate(119 1478.104)" fill="#2753e2"/>
      <circle id="Ellipse_19-23" data-name="Ellipse 19" cx="3.948" cy="3.948" r="3.948" transform="translate(129.265 1478.104)" fill="#2753e2"/>
    </g>
    <g id="Group_120-24" data-name="Group 120" transform="translate(-9 -1454.104)">
      <circle id="Ellipse_18-24" data-name="Ellipse 18" cx="3.948" cy="3.948" r="3.948" transform="translate(119 1478.104)" fill="#2753e2"/>
      <circle id="Ellipse_19-24" data-name="Ellipse 19" cx="3.948" cy="3.948" r="3.948" transform="translate(129.265 1478.104)" fill="#2753e2"/>
    </g>
    <g id="Group_120-25" data-name="Group 120" transform="translate(13 -1454.104)">
      <circle id="Ellipse_18-25" data-name="Ellipse 18" cx="3.948" cy="3.948" r="3.948" transform="translate(119 1478.104)" fill="#2753e2"/>
      <circle id="Ellipse_19-25" data-name="Ellipse 19" cx="3.948" cy="3.948" r="3.948" transform="translate(129.265 1478.104)" fill="#2753e2"/>
    </g>
    <g id="Group_120-26" data-name="Group 120" transform="translate(35 -1454.104)">
      <circle id="Ellipse_18-26" data-name="Ellipse 18" cx="3.948" cy="3.948" r="3.948" transform="translate(119 1478.104)" fill="#2753e2"/>
      <circle id="Ellipse_19-26" data-name="Ellipse 19" cx="3.948" cy="3.948" r="3.948" transform="translate(129.265 1478.104)" fill="#2753e2"/>
    </g>
    <g id="Group_120-27" data-name="Group 120" transform="translate(57 -1454.104)">
      <circle id="Ellipse_18-27" data-name="Ellipse 18" cx="3.948" cy="3.948" r="3.948" transform="translate(119 1478.104)" fill="#2753e2"/>
      <circle id="Ellipse_19-27" data-name="Ellipse 19" cx="3.948" cy="3.948" r="3.948" transform="translate(129.265 1478.104)" fill="#2753e2"/>
    </g>
    <g id="Group_120-28" data-name="Group 120" transform="translate(-119 -1442.104)">
      <circle id="Ellipse_18-28" data-name="Ellipse 18" cx="3.948" cy="3.948" r="3.948" transform="translate(119 1478.104)" fill="#2753e2"/>
      <circle id="Ellipse_19-28" data-name="Ellipse 19" cx="3.948" cy="3.948" r="3.948" transform="translate(129.265 1478.104)" fill="#2753e2"/>
    </g>
    <g id="Group_120-29" data-name="Group 120" transform="translate(-97 -1442.104)">
      <circle id="Ellipse_18-29" data-name="Ellipse 18" cx="3.948" cy="3.948" r="3.948" transform="translate(119 1478.104)" fill="#2753e2"/>
      <circle id="Ellipse_19-29" data-name="Ellipse 19" cx="3.948" cy="3.948" r="3.948" transform="translate(129.265 1478.104)" fill="#2753e2"/>
    </g>
    <g id="Group_120-30" data-name="Group 120" transform="translate(-75 -1442.104)">
      <circle id="Ellipse_18-30" data-name="Ellipse 18" cx="3.948" cy="3.948" r="3.948" transform="translate(119 1478.104)" fill="#2753e2"/>
      <circle id="Ellipse_19-30" data-name="Ellipse 19" cx="3.948" cy="3.948" r="3.948" transform="translate(129.265 1478.104)" fill="#2753e2"/>
    </g>
    <g id="Group_120-31" data-name="Group 120" transform="translate(-53 -1442.104)">
      <circle id="Ellipse_18-31" data-name="Ellipse 18" cx="3.948" cy="3.948" r="3.948" transform="translate(119 1478.104)" fill="#2753e2"/>
      <circle id="Ellipse_19-31" data-name="Ellipse 19" cx="3.948" cy="3.948" r="3.948" transform="translate(129.265 1478.104)" fill="#2753e2"/>
    </g>
    <g id="Group_120-32" data-name="Group 120" transform="translate(-31 -1442.104)">
      <circle id="Ellipse_18-32" data-name="Ellipse 18" cx="3.948" cy="3.948" r="3.948" transform="translate(119 1478.104)" fill="#2753e2"/>
      <circle id="Ellipse_19-32" data-name="Ellipse 19" cx="3.948" cy="3.948" r="3.948" transform="translate(129.265 1478.104)" fill="#2753e2"/>
    </g>
    <g id="Group_120-33" data-name="Group 120" transform="translate(-9 -1442.104)">
      <circle id="Ellipse_18-33" data-name="Ellipse 18" cx="3.948" cy="3.948" r="3.948" transform="translate(119 1478.104)" fill="#2753e2"/>
      <circle id="Ellipse_19-33" data-name="Ellipse 19" cx="3.948" cy="3.948" r="3.948" transform="translate(129.265 1478.104)" fill="#2753e2"/>
    </g>
    <g id="Group_120-34" data-name="Group 120" transform="translate(13 -1442.104)">
      <circle id="Ellipse_18-34" data-name="Ellipse 18" cx="3.948" cy="3.948" r="3.948" transform="translate(119 1478.104)" fill="#2753e2"/>
      <circle id="Ellipse_19-34" data-name="Ellipse 19" cx="3.948" cy="3.948" r="3.948" transform="translate(129.265 1478.104)" fill="#2753e2"/>
    </g>
    <g id="Group_120-35" data-name="Group 120" transform="translate(35 -1442.104)">
      <circle id="Ellipse_18-35" data-name="Ellipse 18" cx="3.948" cy="3.948" r="3.948" transform="translate(119 1478.104)" fill="#2753e2"/>
      <circle id="Ellipse_19-35" data-name="Ellipse 19" cx="3.948" cy="3.948" r="3.948" transform="translate(129.265 1478.104)" fill="#2753e2"/>
    </g>
    <g id="Group_120-36" data-name="Group 120" transform="translate(57 -1442.104)">
      <circle id="Ellipse_18-36" data-name="Ellipse 18" cx="3.948" cy="3.948" r="3.948" transform="translate(119 1478.104)" fill="#2753e2"/>
      <circle id="Ellipse_19-36" data-name="Ellipse 19" cx="3.948" cy="3.948" r="3.948" transform="translate(129.265 1478.104)" fill="#2753e2"/>
    </g>
    <g id="Group_120-37" data-name="Group 120" transform="translate(-119 -1430.104)">
      <circle id="Ellipse_18-37" data-name="Ellipse 18" cx="3.948" cy="3.948" r="3.948" transform="translate(119 1478.104)" fill="#2753e2"/>
      <circle id="Ellipse_19-37" data-name="Ellipse 19" cx="3.948" cy="3.948" r="3.948" transform="translate(129.265 1478.104)" fill="#2753e2"/>
    </g>
    <g id="Group_120-38" data-name="Group 120" transform="translate(-97 -1430.104)">
      <circle id="Ellipse_18-38" data-name="Ellipse 18" cx="3.948" cy="3.948" r="3.948" transform="translate(119 1478.104)" fill="#2753e2"/>
      <circle id="Ellipse_19-38" data-name="Ellipse 19" cx="3.948" cy="3.948" r="3.948" transform="translate(129.265 1478.104)" fill="#2753e2"/>
    </g>
    <g id="Group_120-39" data-name="Group 120" transform="translate(-75 -1430.104)">
      <circle id="Ellipse_18-39" data-name="Ellipse 18" cx="3.948" cy="3.948" r="3.948" transform="translate(119 1478.104)" fill="#2753e2"/>
      <circle id="Ellipse_19-39" data-name="Ellipse 19" cx="3.948" cy="3.948" r="3.948" transform="translate(129.265 1478.104)" fill="#2753e2"/>
    </g>
    <g id="Group_120-40" data-name="Group 120" transform="translate(-53 -1430.104)">
      <circle id="Ellipse_18-40" data-name="Ellipse 18" cx="3.948" cy="3.948" r="3.948" transform="translate(119 1478.104)" fill="#2753e2"/>
      <circle id="Ellipse_19-40" data-name="Ellipse 19" cx="3.948" cy="3.948" r="3.948" transform="translate(129.265 1478.104)" fill="#2753e2"/>
    </g>
    <g id="Group_120-41" data-name="Group 120" transform="translate(-31 -1430.104)">
      <circle id="Ellipse_18-41" data-name="Ellipse 18" cx="3.948" cy="3.948" r="3.948" transform="translate(119 1478.104)" fill="#2753e2"/>
      <circle id="Ellipse_19-41" data-name="Ellipse 19" cx="3.948" cy="3.948" r="3.948" transform="translate(129.265 1478.104)" fill="#2753e2"/>
    </g>
    <g id="Group_120-42" data-name="Group 120" transform="translate(-9 -1430.104)">
      <circle id="Ellipse_18-42" data-name="Ellipse 18" cx="3.948" cy="3.948" r="3.948" transform="translate(119 1478.104)" fill="#2753e2"/>
      <circle id="Ellipse_19-42" data-name="Ellipse 19" cx="3.948" cy="3.948" r="3.948" transform="translate(129.265 1478.104)" fill="#2753e2"/>
    </g>
    <g id="Group_120-43" data-name="Group 120" transform="translate(13 -1430.104)">
      <circle id="Ellipse_18-43" data-name="Ellipse 18" cx="3.948" cy="3.948" r="3.948" transform="translate(119 1478.104)" fill="#2753e2"/>
      <circle id="Ellipse_19-43" data-name="Ellipse 19" cx="3.948" cy="3.948" r="3.948" transform="translate(129.265 1478.104)" fill="#2753e2"/>
    </g>
    <g id="Group_120-44" data-name="Group 120" transform="translate(35 -1430.104)">
      <circle id="Ellipse_18-44" data-name="Ellipse 18" cx="3.948" cy="3.948" r="3.948" transform="translate(119 1478.104)" fill="#2753e2"/>
      <circle id="Ellipse_19-44" data-name="Ellipse 19" cx="3.948" cy="3.948" r="3.948" transform="translate(129.265 1478.104)" fill="#2753e2"/>
    </g>
    <g id="Group_120-45" data-name="Group 120" transform="translate(57 -1430.104)">
      <circle id="Ellipse_18-45" data-name="Ellipse 18" cx="3.948" cy="3.948" r="3.948" transform="translate(119 1478.104)" fill="#2753e2"/>
      <circle id="Ellipse_19-45" data-name="Ellipse 19" cx="3.948" cy="3.948" r="3.948" transform="translate(129.265 1478.104)" fill="#2753e2"/>
    </g>
    <g id="Group_120-46" data-name="Group 120" transform="translate(-119 -1418.104)">
      <circle id="Ellipse_18-46" data-name="Ellipse 18" cx="3.948" cy="3.948" r="3.948" transform="translate(119 1478.104)" fill="#2753e2"/>
      <circle id="Ellipse_19-46" data-name="Ellipse 19" cx="3.948" cy="3.948" r="3.948" transform="translate(129.265 1478.104)" fill="#2753e2"/>
    </g>
    <g id="Group_120-47" data-name="Group 120" transform="translate(-97 -1418.104)">
      <circle id="Ellipse_18-47" data-name="Ellipse 18" cx="3.948" cy="3.948" r="3.948" transform="translate(119 1478.104)" fill="#2753e2"/>
      <circle id="Ellipse_19-47" data-name="Ellipse 19" cx="3.948" cy="3.948" r="3.948" transform="translate(129.265 1478.104)" fill="#2753e2"/>
    </g>
    <g id="Group_120-48" data-name="Group 120" transform="translate(-75 -1418.104)">
      <circle id="Ellipse_18-48" data-name="Ellipse 18" cx="3.948" cy="3.948" r="3.948" transform="translate(119 1478.104)" fill="#2753e2"/>
      <circle id="Ellipse_19-48" data-name="Ellipse 19" cx="3.948" cy="3.948" r="3.948" transform="translate(129.265 1478.104)" fill="#2753e2"/>
    </g>
    <g id="Group_120-49" data-name="Group 120" transform="translate(-53 -1418.104)">
      <circle id="Ellipse_18-49" data-name="Ellipse 18" cx="3.948" cy="3.948" r="3.948" transform="translate(119 1478.104)" fill="#2753e2"/>
      <circle id="Ellipse_19-49" data-name="Ellipse 19" cx="3.948" cy="3.948" r="3.948" transform="translate(129.265 1478.104)" fill="#2753e2"/>
    </g>
    <g id="Group_120-50" data-name="Group 120" transform="translate(-31 -1418.104)">
      <circle id="Ellipse_18-50" data-name="Ellipse 18" cx="3.948" cy="3.948" r="3.948" transform="translate(119 1478.104)" fill="#2753e2"/>
      <circle id="Ellipse_19-50" data-name="Ellipse 19" cx="3.948" cy="3.948" r="3.948" transform="translate(129.265 1478.104)" fill="#2753e2"/>
    </g>
    <g id="Group_120-51" data-name="Group 120" transform="translate(-9 -1418.104)">
      <circle id="Ellipse_18-51" data-name="Ellipse 18" cx="3.948" cy="3.948" r="3.948" transform="translate(119 1478.104)" fill="#2753e2"/>
      <circle id="Ellipse_19-51" data-name="Ellipse 19" cx="3.948" cy="3.948" r="3.948" transform="translate(129.265 1478.104)" fill="#2753e2"/>
    </g>
    <g id="Group_120-52" data-name="Group 120" transform="translate(13 -1418.104)">
      <circle id="Ellipse_18-52" data-name="Ellipse 18" cx="3.948" cy="3.948" r="3.948" transform="translate(119 1478.104)" fill="#2753e2"/>
      <circle id="Ellipse_19-52" data-name="Ellipse 19" cx="3.948" cy="3.948" r="3.948" transform="translate(129.265 1478.104)" fill="#2753e2"/>
    </g>
    <g id="Group_120-53" data-name="Group 120" transform="translate(35 -1418.104)">
      <circle id="Ellipse_18-53" data-name="Ellipse 18" cx="3.948" cy="3.948" r="3.948" transform="translate(119 1478.104)" fill="#2753e2"/>
      <circle id="Ellipse_19-53" data-name="Ellipse 19" cx="3.948" cy="3.948" r="3.948" transform="translate(129.265 1478.104)" fill="#2753e2"/>
    </g>
    <g id="Group_120-54" data-name="Group 120" transform="translate(57 -1418.104)">
      <circle id="Ellipse_18-54" data-name="Ellipse 18" cx="3.948" cy="3.948" r="3.948" transform="translate(119 1478.104)" fill="#2753e2"/>
      <circle id="Ellipse_19-54" data-name="Ellipse 19" cx="3.948" cy="3.948" r="3.948" transform="translate(129.265 1478.104)" fill="#2753e2"/>
    </g>
    <g id="Group_120-55" data-name="Group 120" transform="translate(-119 -1406.104)">
      <circle id="Ellipse_18-55" data-name="Ellipse 18" cx="3.948" cy="3.948" r="3.948" transform="translate(119 1478.104)" fill="#2753e2"/>
      <circle id="Ellipse_19-55" data-name="Ellipse 19" cx="3.948" cy="3.948" r="3.948" transform="translate(129.265 1478.104)" fill="#2753e2"/>
    </g>
    <g id="Group_120-56" data-name="Group 120" transform="translate(-97 -1406.104)">
      <circle id="Ellipse_18-56" data-name="Ellipse 18" cx="3.948" cy="3.948" r="3.948" transform="translate(119 1478.104)" fill="#2753e2"/>
      <circle id="Ellipse_19-56" data-name="Ellipse 19" cx="3.948" cy="3.948" r="3.948" transform="translate(129.265 1478.104)" fill="#2753e2"/>
    </g>
    <g id="Group_120-57" data-name="Group 120" transform="translate(-75 -1406.104)">
      <circle id="Ellipse_18-57" data-name="Ellipse 18" cx="3.948" cy="3.948" r="3.948" transform="translate(119 1478.104)" fill="#2753e2"/>
      <circle id="Ellipse_19-57" data-name="Ellipse 19" cx="3.948" cy="3.948" r="3.948" transform="translate(129.265 1478.104)" fill="#2753e2"/>
    </g>
    <g id="Group_120-58" data-name="Group 120" transform="translate(-53 -1406.104)">
      <circle id="Ellipse_18-58" data-name="Ellipse 18" cx="3.948" cy="3.948" r="3.948" transform="translate(119 1478.104)" fill="#2753e2"/>
      <circle id="Ellipse_19-58" data-name="Ellipse 19" cx="3.948" cy="3.948" r="3.948" transform="translate(129.265 1478.104)" fill="#2753e2"/>
    </g>
    <g id="Group_120-59" data-name="Group 120" transform="translate(-31 -1406.104)">
      <circle id="Ellipse_18-59" data-name="Ellipse 18" cx="3.948" cy="3.948" r="3.948" transform="translate(119 1478.104)" fill="#2753e2"/>
      <circle id="Ellipse_19-59" data-name="Ellipse 19" cx="3.948" cy="3.948" r="3.948" transform="translate(129.265 1478.104)" fill="#2753e2"/>
    </g>
    <g id="Group_120-60" data-name="Group 120" transform="translate(-9 -1406.104)">
      <circle id="Ellipse_18-60" data-name="Ellipse 18" cx="3.948" cy="3.948" r="3.948" transform="translate(119 1478.104)" fill="#2753e2"/>
      <circle id="Ellipse_19-60" data-name="Ellipse 19" cx="3.948" cy="3.948" r="3.948" transform="translate(129.265 1478.104)" fill="#2753e2"/>
    </g>
    <g id="Group_120-61" data-name="Group 120" transform="translate(13 -1406.104)">
      <circle id="Ellipse_18-61" data-name="Ellipse 18" cx="3.948" cy="3.948" r="3.948" transform="translate(119 1478.104)" fill="#2753e2"/>
      <circle id="Ellipse_19-61" data-name="Ellipse 19" cx="3.948" cy="3.948" r="3.948" transform="translate(129.265 1478.104)" fill="#2753e2"/>
    </g>
    <g id="Group_120-62" data-name="Group 120" transform="translate(35 -1406.104)">
      <circle id="Ellipse_18-62" data-name="Ellipse 18" cx="3.948" cy="3.948" r="3.948" transform="translate(119 1478.104)" fill="#2753e2"/>
      <circle id="Ellipse_19-62" data-name="Ellipse 19" cx="3.948" cy="3.948" r="3.948" transform="translate(129.265 1478.104)" fill="#2753e2"/>
    </g>
    <g id="Group_120-63" data-name="Group 120" transform="translate(57 -1406.104)">
      <circle id="Ellipse_18-63" data-name="Ellipse 18" cx="3.948" cy="3.948" r="3.948" transform="translate(119 1478.104)" fill="#2753e2"/>
      <circle id="Ellipse_19-63" data-name="Ellipse 19" cx="3.948" cy="3.948" r="3.948" transform="translate(129.265 1478.104)" fill="#2753e2"/>
    </g>
    <g id="Group_120-64" data-name="Group 120" transform="translate(-119 -1394.104)">
      <circle id="Ellipse_18-64" data-name="Ellipse 18" cx="3.948" cy="3.948" r="3.948" transform="translate(119 1478.104)" fill="#2753e2"/>
      <circle id="Ellipse_19-64" data-name="Ellipse 19" cx="3.948" cy="3.948" r="3.948" transform="translate(129.265 1478.104)" fill="#2753e2"/>
    </g>
    <g id="Group_120-65" data-name="Group 120" transform="translate(-97 -1394.104)">
      <circle id="Ellipse_18-65" data-name="Ellipse 18" cx="3.948" cy="3.948" r="3.948" transform="translate(119 1478.104)" fill="#2753e2"/>
      <circle id="Ellipse_19-65" data-name="Ellipse 19" cx="3.948" cy="3.948" r="3.948" transform="translate(129.265 1478.104)" fill="#2753e2"/>
    </g>
    <g id="Group_120-66" data-name="Group 120" transform="translate(-75 -1394.104)">
      <circle id="Ellipse_18-66" data-name="Ellipse 18" cx="3.948" cy="3.948" r="3.948" transform="translate(119 1478.104)" fill="#2753e2"/>
      <circle id="Ellipse_19-66" data-name="Ellipse 19" cx="3.948" cy="3.948" r="3.948" transform="translate(129.265 1478.104)" fill="#2753e2"/>
    </g>
    <g id="Group_120-67" data-name="Group 120" transform="translate(-53 -1394.104)">
      <circle id="Ellipse_18-67" data-name="Ellipse 18" cx="3.948" cy="3.948" r="3.948" transform="translate(119 1478.104)" fill="#2753e2"/>
      <circle id="Ellipse_19-67" data-name="Ellipse 19" cx="3.948" cy="3.948" r="3.948" transform="translate(129.265 1478.104)" fill="#2753e2"/>
    </g>
    <g id="Group_120-68" data-name="Group 120" transform="translate(-31 -1394.104)">
      <circle id="Ellipse_18-68" data-name="Ellipse 18" cx="3.948" cy="3.948" r="3.948" transform="translate(119 1478.104)" fill="#2753e2"/>
      <circle id="Ellipse_19-68" data-name="Ellipse 19" cx="3.948" cy="3.948" r="3.948" transform="translate(129.265 1478.104)" fill="#2753e2"/>
    </g>
    <g id="Group_120-69" data-name="Group 120" transform="translate(-9 -1394.104)">
      <circle id="Ellipse_18-69" data-name="Ellipse 18" cx="3.948" cy="3.948" r="3.948" transform="translate(119 1478.104)" fill="#2753e2"/>
      <circle id="Ellipse_19-69" data-name="Ellipse 19" cx="3.948" cy="3.948" r="3.948" transform="translate(129.265 1478.104)" fill="#2753e2"/>
    </g>
    <g id="Group_120-70" data-name="Group 120" transform="translate(13 -1394.104)">
      <circle id="Ellipse_18-70" data-name="Ellipse 18" cx="3.948" cy="3.948" r="3.948" transform="translate(119 1478.104)" fill="#2753e2"/>
      <circle id="Ellipse_19-70" data-name="Ellipse 19" cx="3.948" cy="3.948" r="3.948" transform="translate(129.265 1478.104)" fill="#2753e2"/>
    </g>
    <g id="Group_120-71" data-name="Group 120" transform="translate(35 -1394.104)">
      <circle id="Ellipse_18-71" data-name="Ellipse 18" cx="3.948" cy="3.948" r="3.948" transform="translate(119 1478.104)" fill="#2753e2"/>
      <circle id="Ellipse_19-71" data-name="Ellipse 19" cx="3.948" cy="3.948" r="3.948" transform="translate(129.265 1478.104)" fill="#2753e2"/>
    </g>
    <g id="Group_120-72" data-name="Group 120" transform="translate(57 -1394.104)">
      <circle id="Ellipse_18-72" data-name="Ellipse 18" cx="3.948" cy="3.948" r="3.948" transform="translate(119 1478.104)" fill="#2753e2"/>
      <circle id="Ellipse_19-72" data-name="Ellipse 19" cx="3.948" cy="3.948" r="3.948" transform="translate(129.265 1478.104)" fill="#2753e2"/>
    </g>
    <g id="Group_120-73" data-name="Group 120" transform="translate(-119 -1382.104)">
      <circle id="Ellipse_18-73" data-name="Ellipse 18" cx="3.948" cy="3.948" r="3.948" transform="translate(119 1478.104)" fill="#2753e2"/>
      <circle id="Ellipse_19-73" data-name="Ellipse 19" cx="3.948" cy="3.948" r="3.948" transform="translate(129.265 1478.104)" fill="#2753e2"/>
    </g>
    <g id="Group_120-74" data-name="Group 120" transform="translate(-97 -1382.104)">
      <circle id="Ellipse_18-74" data-name="Ellipse 18" cx="3.948" cy="3.948" r="3.948" transform="translate(119 1478.104)" fill="#2753e2"/>
      <circle id="Ellipse_19-74" data-name="Ellipse 19" cx="3.948" cy="3.948" r="3.948" transform="translate(129.265 1478.104)" fill="#2753e2"/>
    </g>
    <g id="Group_120-75" data-name="Group 120" transform="translate(-75 -1382.104)">
      <circle id="Ellipse_18-75" data-name="Ellipse 18" cx="3.948" cy="3.948" r="3.948" transform="translate(119 1478.104)" fill="#2753e2"/>
      <circle id="Ellipse_19-75" data-name="Ellipse 19" cx="3.948" cy="3.948" r="3.948" transform="translate(129.265 1478.104)" fill="#2753e2"/>
    </g>
    <g id="Group_120-76" data-name="Group 120" transform="translate(-53 -1382.104)">
      <circle id="Ellipse_18-76" data-name="Ellipse 18" cx="3.948" cy="3.948" r="3.948" transform="translate(119 1478.104)" fill="#2753e2"/>
      <circle id="Ellipse_19-76" data-name="Ellipse 19" cx="3.948" cy="3.948" r="3.948" transform="translate(129.265 1478.104)" fill="#2753e2"/>
    </g>
    <g id="Group_120-77" data-name="Group 120" transform="translate(-31 -1382.104)">
      <circle id="Ellipse_18-77" data-name="Ellipse 18" cx="3.948" cy="3.948" r="3.948" transform="translate(119 1478.104)" fill="#2753e2"/>
      <circle id="Ellipse_19-77" data-name="Ellipse 19" cx="3.948" cy="3.948" r="3.948" transform="translate(129.265 1478.104)" fill="#2753e2"/>
    </g>
    <g id="Group_120-78" data-name="Group 120" transform="translate(-9 -1382.104)">
      <circle id="Ellipse_18-78" data-name="Ellipse 18" cx="3.948" cy="3.948" r="3.948" transform="translate(119 1478.104)" fill="#2753e2"/>
      <circle id="Ellipse_19-78" data-name="Ellipse 19" cx="3.948" cy="3.948" r="3.948" transform="translate(129.265 1478.104)" fill="#2753e2"/>
    </g>
    <g id="Group_120-79" data-name="Group 120" transform="translate(13 -1382.104)">
      <circle id="Ellipse_18-79" data-name="Ellipse 18" cx="3.948" cy="3.948" r="3.948" transform="translate(119 1478.104)" fill="#2753e2"/>
      <circle id="Ellipse_19-79" data-name="Ellipse 19" cx="3.948" cy="3.948" r="3.948" transform="translate(129.265 1478.104)" fill="#2753e2"/>
    </g>
    <g id="Group_120-80" data-name="Group 120" transform="translate(35 -1382.104)">
      <circle id="Ellipse_18-80" data-name="Ellipse 18" cx="3.948" cy="3.948" r="3.948" transform="translate(119 1478.104)" fill="#2753e2"/>
      <circle id="Ellipse_19-80" data-name="Ellipse 19" cx="3.948" cy="3.948" r="3.948" transform="translate(129.265 1478.104)" fill="#2753e2"/>
    </g>
    <g id="Group_120-81" data-name="Group 120" transform="translate(57 -1382.104)">
      <circle id="Ellipse_18-81" data-name="Ellipse 18" cx="3.948" cy="3.948" r="3.948" transform="translate(119 1478.104)" fill="#2753e2"/>
      <circle id="Ellipse_19-81" data-name="Ellipse 19" cx="3.948" cy="3.948" r="3.948" transform="translate(129.265 1478.104)" fill="#2753e2"/>
    </g>
    <g id="Group_120-82" data-name="Group 120" transform="translate(-119 -1370.104)">
      <circle id="Ellipse_18-82" data-name="Ellipse 18" cx="3.948" cy="3.948" r="3.948" transform="translate(119 1478.104)" fill="#2753e2"/>
      <circle id="Ellipse_19-82" data-name="Ellipse 19" cx="3.948" cy="3.948" r="3.948" transform="translate(129.265 1478.104)" fill="#2753e2"/>
    </g>
    <g id="Group_120-83" data-name="Group 120" transform="translate(-97 -1370.104)">
      <circle id="Ellipse_18-83" data-name="Ellipse 18" cx="3.948" cy="3.948" r="3.948" transform="translate(119 1478.104)" fill="#2753e2"/>
      <circle id="Ellipse_19-83" data-name="Ellipse 19" cx="3.948" cy="3.948" r="3.948" transform="translate(129.265 1478.104)" fill="#2753e2"/>
    </g>
    <g id="Group_120-84" data-name="Group 120" transform="translate(-75 -1370.104)">
      <circle id="Ellipse_18-84" data-name="Ellipse 18" cx="3.948" cy="3.948" r="3.948" transform="translate(119 1478.104)" fill="#2753e2"/>
      <circle id="Ellipse_19-84" data-name="Ellipse 19" cx="3.948" cy="3.948" r="3.948" transform="translate(129.265 1478.104)" fill="#2753e2"/>
    </g>
    <g id="Group_120-85" data-name="Group 120" transform="translate(-53 -1370.104)">
      <circle id="Ellipse_18-85" data-name="Ellipse 18" cx="3.948" cy="3.948" r="3.948" transform="translate(119 1478.104)" fill="#2753e2"/>
      <circle id="Ellipse_19-85" data-name="Ellipse 19" cx="3.948" cy="3.948" r="3.948" transform="translate(129.265 1478.104)" fill="#2753e2"/>
    </g>
    <g id="Group_120-86" data-name="Group 120" transform="translate(-31 -1370.104)">
      <circle id="Ellipse_18-86" data-name="Ellipse 18" cx="3.948" cy="3.948" r="3.948" transform="translate(119 1478.104)" fill="#2753e2"/>
      <circle id="Ellipse_19-86" data-name="Ellipse 19" cx="3.948" cy="3.948" r="3.948" transform="translate(129.265 1478.104)" fill="#2753e2"/>
    </g>
    <g id="Group_120-87" data-name="Group 120" transform="translate(-9 -1370.104)">
      <circle id="Ellipse_18-87" data-name="Ellipse 18" cx="3.948" cy="3.948" r="3.948" transform="translate(119 1478.104)" fill="#2753e2"/>
      <circle id="Ellipse_19-87" data-name="Ellipse 19" cx="3.948" cy="3.948" r="3.948" transform="translate(129.265 1478.104)" fill="#2753e2"/>
    </g>
    <g id="Group_120-88" data-name="Group 120" transform="translate(13 -1370.104)">
      <circle id="Ellipse_18-88" data-name="Ellipse 18" cx="3.948" cy="3.948" r="3.948" transform="translate(119 1478.104)" fill="#2753e2"/>
      <circle id="Ellipse_19-88" data-name="Ellipse 19" cx="3.948" cy="3.948" r="3.948" transform="translate(129.265 1478.104)" fill="#2753e2"/>
    </g>
    <g id="Group_120-89" data-name="Group 120" transform="translate(35 -1370.104)">
      <circle id="Ellipse_18-89" data-name="Ellipse 18" cx="3.948" cy="3.948" r="3.948" transform="translate(119 1478.104)" fill="#2753e2"/>
      <circle id="Ellipse_19-89" data-name="Ellipse 19" cx="3.948" cy="3.948" r="3.948" transform="translate(129.265 1478.104)" fill="#2753e2"/>
    </g>
    <g id="Group_120-90" data-name="Group 120" transform="translate(57 -1370.104)">
      <circle id="Ellipse_18-90" data-name="Ellipse 18" cx="3.948" cy="3.948" r="3.948" transform="translate(119 1478.104)" fill="#2753e2"/>
      <circle id="Ellipse_19-90" data-name="Ellipse 19" cx="3.948" cy="3.948" r="3.948" transform="translate(129.265 1478.104)" fill="#2753e2"/>
    </g>
    <g id="Group_120-91" data-name="Group 120" transform="translate(-119 -1358.104)">
      <circle id="Ellipse_18-91" data-name="Ellipse 18" cx="3.948" cy="3.948" r="3.948" transform="translate(119 1478.104)" fill="#2753e2"/>
      <circle id="Ellipse_19-91" data-name="Ellipse 19" cx="3.948" cy="3.948" r="3.948" transform="translate(129.265 1478.104)" fill="#2753e2"/>
    </g>
    <g id="Group_120-92" data-name="Group 120" transform="translate(-97 -1358.104)">
      <circle id="Ellipse_18-92" data-name="Ellipse 18" cx="3.948" cy="3.948" r="3.948" transform="translate(119 1478.104)" fill="#2753e2"/>
      <circle id="Ellipse_19-92" data-name="Ellipse 19" cx="3.948" cy="3.948" r="3.948" transform="translate(129.265 1478.104)" fill="#2753e2"/>
    </g>
    <g id="Group_120-93" data-name="Group 120" transform="translate(-75 -1358.104)">
      <circle id="Ellipse_18-93" data-name="Ellipse 18" cx="3.948" cy="3.948" r="3.948" transform="translate(119 1478.104)" fill="#2753e2"/>
      <circle id="Ellipse_19-93" data-name="Ellipse 19" cx="3.948" cy="3.948" r="3.948" transform="translate(129.265 1478.104)" fill="#2753e2"/>
    </g>
    <g id="Group_120-94" data-name="Group 120" transform="translate(-53 -1358.104)">
      <circle id="Ellipse_18-94" data-name="Ellipse 18" cx="3.948" cy="3.948" r="3.948" transform="translate(119 1478.104)" fill="#2753e2"/>
      <circle id="Ellipse_19-94" data-name="Ellipse 19" cx="3.948" cy="3.948" r="3.948" transform="translate(129.265 1478.104)" fill="#2753e2"/>
    </g>
    <g id="Group_120-95" data-name="Group 120" transform="translate(-31 -1358.104)">
      <circle id="Ellipse_18-95" data-name="Ellipse 18" cx="3.948" cy="3.948" r="3.948" transform="translate(119 1478.104)" fill="#2753e2"/>
      <circle id="Ellipse_19-95" data-name="Ellipse 19" cx="3.948" cy="3.948" r="3.948" transform="translate(129.265 1478.104)" fill="#2753e2"/>
    </g>
    <g id="Group_120-96" data-name="Group 120" transform="translate(-9 -1358.104)">
      <circle id="Ellipse_18-96" data-name="Ellipse 18" cx="3.948" cy="3.948" r="3.948" transform="translate(119 1478.104)" fill="#2753e2"/>
      <circle id="Ellipse_19-96" data-name="Ellipse 19" cx="3.948" cy="3.948" r="3.948" transform="translate(129.265 1478.104)" fill="#2753e2"/>
    </g>
    <g id="Group_120-97" data-name="Group 120" transform="translate(13 -1358.104)">
      <circle id="Ellipse_18-97" data-name="Ellipse 18" cx="3.948" cy="3.948" r="3.948" transform="translate(119 1478.104)" fill="#2753e2"/>
      <circle id="Ellipse_19-97" data-name="Ellipse 19" cx="3.948" cy="3.948" r="3.948" transform="translate(129.265 1478.104)" fill="#2753e2"/>
    </g>
    <g id="Group_120-98" data-name="Group 120" transform="translate(35 -1358.104)">
      <circle id="Ellipse_18-98" data-name="Ellipse 18" cx="3.948" cy="3.948" r="3.948" transform="translate(119 1478.104)" fill="#2753e2"/>
      <circle id="Ellipse_19-98" data-name="Ellipse 19" cx="3.948" cy="3.948" r="3.948" transform="translate(129.265 1478.104)" fill="#2753e2"/>
    </g>
    <g id="Group_120-99" data-name="Group 120" transform="translate(57 -1358.104)">
      <circle id="Ellipse_18-99" data-name="Ellipse 18" cx="3.948" cy="3.948" r="3.948" transform="translate(119 1478.104)" fill="#2753e2"/>
      <circle id="Ellipse_19-99" data-name="Ellipse 19" cx="3.948" cy="3.948" r="3.948" transform="translate(129.265 1478.104)" fill="#2753e2"/>
    </g>
    <g id="Group_120-100" data-name="Group 120" transform="translate(-119 -1346.104)">
      <circle id="Ellipse_18-100" data-name="Ellipse 18" cx="3.948" cy="3.948" r="3.948" transform="translate(119 1478.104)" fill="#2753e2"/>
      <circle id="Ellipse_19-100" data-name="Ellipse 19" cx="3.948" cy="3.948" r="3.948" transform="translate(129.265 1478.104)" fill="#2753e2"/>
    </g>
    <g id="Group_120-101" data-name="Group 120" transform="translate(-97 -1346.104)">
      <circle id="Ellipse_18-101" data-name="Ellipse 18" cx="3.948" cy="3.948" r="3.948" transform="translate(119 1478.104)" fill="#2753e2"/>
      <circle id="Ellipse_19-101" data-name="Ellipse 19" cx="3.948" cy="3.948" r="3.948" transform="translate(129.265 1478.104)" fill="#2753e2"/>
    </g>
    <g id="Group_120-102" data-name="Group 120" transform="translate(-75 -1346.104)">
      <circle id="Ellipse_18-102" data-name="Ellipse 18" cx="3.948" cy="3.948" r="3.948" transform="translate(119 1478.104)" fill="#2753e2"/>
      <circle id="Ellipse_19-102" data-name="Ellipse 19" cx="3.948" cy="3.948" r="3.948" transform="translate(129.265 1478.104)" fill="#2753e2"/>
    </g>
    <g id="Group_120-103" data-name="Group 120" transform="translate(-53 -1346.104)">
      <circle id="Ellipse_18-103" data-name="Ellipse 18" cx="3.948" cy="3.948" r="3.948" transform="translate(119 1478.104)" fill="#2753e2"/>
      <circle id="Ellipse_19-103" data-name="Ellipse 19" cx="3.948" cy="3.948" r="3.948" transform="translate(129.265 1478.104)" fill="#2753e2"/>
    </g>
    <g id="Group_120-104" data-name="Group 120" transform="translate(-31 -1346.104)">
      <circle id="Ellipse_18-104" data-name="Ellipse 18" cx="3.948" cy="3.948" r="3.948" transform="translate(119 1478.104)" fill="#2753e2"/>
      <circle id="Ellipse_19-104" data-name="Ellipse 19" cx="3.948" cy="3.948" r="3.948" transform="translate(129.265 1478.104)" fill="#2753e2"/>
    </g>
    <g id="Group_120-105" data-name="Group 120" transform="translate(-9 -1346.104)">
      <circle id="Ellipse_18-105" data-name="Ellipse 18" cx="3.948" cy="3.948" r="3.948" transform="translate(119 1478.104)" fill="#2753e2"/>
      <circle id="Ellipse_19-105" data-name="Ellipse 19" cx="3.948" cy="3.948" r="3.948" transform="translate(129.265 1478.104)" fill="#2753e2"/>
    </g>
    <g id="Group_120-106" data-name="Group 120" transform="translate(13 -1346.104)">
      <circle id="Ellipse_18-106" data-name="Ellipse 18" cx="3.948" cy="3.948" r="3.948" transform="translate(119 1478.104)" fill="#2753e2"/>
      <circle id="Ellipse_19-106" data-name="Ellipse 19" cx="3.948" cy="3.948" r="3.948" transform="translate(129.265 1478.104)" fill="#2753e2"/>
    </g>
    <g id="Group_120-107" data-name="Group 120" transform="translate(35 -1346.104)">
      <circle id="Ellipse_18-107" data-name="Ellipse 18" cx="3.948" cy="3.948" r="3.948" transform="translate(119 1478.104)" fill="#2753e2"/>
      <circle id="Ellipse_19-107" data-name="Ellipse 19" cx="3.948" cy="3.948" r="3.948" transform="translate(129.265 1478.104)" fill="#2753e2"/>
    </g>
    <g id="Group_120-108" data-name="Group 120" transform="translate(57 -1346.104)">
      <circle id="Ellipse_18-108" data-name="Ellipse 18" cx="3.948" cy="3.948" r="3.948" transform="translate(119 1478.104)" fill="#2753e2"/>
      <circle id="Ellipse_19-108" data-name="Ellipse 19" cx="3.948" cy="3.948" r="3.948" transform="translate(129.265 1478.104)" fill="#2753e2"/>
    </g>
  </g>
  <g id="Mask_Group_2" data-name="Mask Group 2" transform="translate(0 -1348)" clip-path="url(#clip-path-2)">
    <path id="Path_324" data-name="Path 324" d="M973.435,673.348c106.033-15.828,110.486-100.339,76.818-147.341-47.709-66.577-91.258-55.736-24.721-165.342,22.588-37.229,31.282-84.778,14.161-125.887-12.307-29.575-37.749-53.883-68.5-62.91-17.094-5-35.189-5.334-52.7-8.667s-35.508-10.4-45.709-25.015c-9.827-14.067-10.667-32.575-8.294-49.576,5.667-40.882,28-78.311,30.015-119.833,1.68-34.989-9.894-75.164-34.6-100.619-32.348-33.335-82.671-40.5-126.807-43.069-51.843-3-104.1,4.76-153.342,20.854-63.15,20.6-121.473,54.6-173.343,96.005-46.2,36.9-88,80.284-117.513,131.5C242.089,154.533,215.021,286.54,310.279,344.5c114.673,69.777,188.677-51.189,194.9,67.83,3.72,71.23,54.736,182.677,193.877,127.127S820.734,696.149,973.435,673.348Z" transform="translate(849.782 1305.472)" fill="#2753e2"/>
  </g>
</svg>
